<svg width="17" height="15" viewBox="0 0 17 15" fill="none" xmlns="http://www.w3.org/2000/svg">
<path d="M11.875 6.875C11.875 7.34896 11.7018 7.75911 11.3555 8.10547C11.0091 8.45182 10.599 8.625 10.125 8.625H4.92969L2.6875 10.3203C2.59635 10.3932 2.49609 10.4023 2.38672 10.3477C2.29557 10.293 2.25 10.2109 2.25 10.1016V8.625C1.77604 8.625 1.36589 8.45182 1.01953 8.10547C0.673177 7.75911 0.5 7.34896 0.5 6.875V2.5C0.5 2.02604 0.673177 1.61589 1.01953 1.26953C1.36589 0.923177 1.77604 0.75 2.25 0.75H10.125C10.599 0.75 11.0091 0.923177 11.3555 1.26953C11.7018 1.61589 11.875 2.02604 11.875 2.5V6.875ZM14.5 5.125C14.974 5.125 15.3841 5.29818 15.7305 5.64453C16.0768 5.99089 16.25 6.40104 16.25 6.875V11.25C16.25 11.724 16.0768 12.1341 15.7305 12.4805C15.3841 12.8268 14.974 13 14.5 13H13.625V14.4766C13.625 14.5859 13.5703 14.668 13.4609 14.7227C13.3698 14.7773 13.2786 14.7682 13.1875 14.6953L10.9453 13H7.5C7.02604 13 6.61589 12.8268 6.26953 12.4805C5.92318 12.1341 5.75 11.724 5.75 11.25V9.5H10.125C10.8542 9.5 11.474 9.24479 11.9844 8.73438C12.4948 8.22396 12.75 7.60417 12.75 6.875V5.125H14.5Z" fill="#4B3EC4"/>
</svg>
