<svg width="15" height="15" viewBox="0 0 15 15" fill="none" xmlns="http://www.w3.org/2000/svg">
<path d="M14.1719 0.75C14.263 0.75 14.3359 0.786458 14.3906 0.859375C14.4635 0.914062 14.5 0.986979 14.5 1.07812V6.54688C14.5 6.63802 14.4635 6.72005 14.3906 6.79297C14.3359 6.84766 14.263 6.875 14.1719 6.875H8.70312C8.61198 6.875 8.52995 6.84766 8.45703 6.79297C8.40234 6.72005 8.375 6.63802 8.375 6.54688V5.26172C8.375 5.17057 8.40234 5.09766 8.45703 5.04297C8.52995 4.97005 8.62109 4.93359 8.73047 4.93359L11.4922 5.07031C11.0547 4.41406 10.4805 3.89453 9.76953 3.51172C9.07682 3.12891 8.32031 2.9375 7.5 2.9375C6.16927 2.9375 5.02995 3.41146 4.08203 4.35938C3.15234 5.28906 2.6875 6.41927 2.6875 7.75C2.6875 9.08073 3.15234 10.2201 4.08203 11.168C5.02995 12.0977 6.16927 12.5625 7.5 12.5625C8.72135 12.5625 9.77865 12.1615 10.6719 11.3594C10.8359 11.2318 10.9909 11.2409 11.1367 11.3867L12.0664 12.3164C12.2305 12.4805 12.2214 12.6354 12.0391 12.7812C10.7448 13.9479 9.23177 14.5312 7.5 14.5312C5.6224 14.5312 4.01823 13.875 2.6875 12.5625C1.375 11.2318 0.71875 9.6276 0.71875 7.75C0.71875 6.52865 1.01953 5.39844 1.62109 4.35938C2.22266 3.32031 3.04297 2.5 4.08203 1.89844C5.13932 1.27865 6.27865 0.96875 7.5 0.96875C8.52083 0.96875 9.47786 1.17839 10.3711 1.59766C11.2643 2.01693 12.0299 2.60026 12.668 3.34766L12.5586 1.10547C12.5586 0.996094 12.5859 0.914062 12.6406 0.859375C12.7135 0.786458 12.7956 0.75 12.8867 0.75H14.1719Z" fill="#4B3EC4"/>
</svg>
