<svg width="137" height="33" viewBox="0 0 137 33" fill="none" xmlns="http://www.w3.org/2000/svg">
<path d="M12.3862 32.5035C10.0622 32.5035 7.80823 32.1955 5.62423 31.5795C3.46823 30.9355 1.73223 30.1095 0.416234 29.1015L2.72623 23.9775C3.98623 24.9015 5.48423 25.6435 7.22023 26.2035C8.95623 26.7635 10.6922 27.0435 12.4282 27.0435C14.3602 27.0435 15.7882 26.7635 16.7122 26.2035C17.6362 25.6155 18.0982 24.8455 18.0982 23.8935C18.0982 23.1935 17.8182 22.6195 17.2582 22.1715C16.7262 21.6955 16.0262 21.3175 15.1582 21.0375C14.3182 20.7575 13.1702 20.4495 11.7142 20.1135C9.47423 19.5815 7.64023 19.0495 6.21223 18.5175C4.78423 17.9855 3.55223 17.1315 2.51623 15.9555C1.50823 14.7795 1.00423 13.2115 1.00423 11.2515C1.00423 9.54351 1.46623 8.00351 2.39023 6.63151C3.31423 5.23151 4.70023 4.12551 6.54823 3.31351C8.42423 2.50151 10.7062 2.09551 13.3942 2.09551C15.2702 2.09551 17.1042 2.31951 18.8962 2.76751C20.6882 3.21551 22.2562 3.85951 23.6002 4.69951L21.5002 9.86551C18.7842 8.32551 16.0682 7.55551 13.3522 7.55551C11.4482 7.55551 10.0342 7.86351 9.11023 8.47951C8.21423 9.09551 7.76623 9.90751 7.76623 10.9155C7.76623 11.9235 8.28423 12.6795 9.32023 13.1835C10.3842 13.6595 11.9942 14.1355 14.1502 14.6115C16.3902 15.1435 18.2242 15.6755 19.6522 16.2075C21.0802 16.7395 22.2982 17.5795 23.3062 18.7275C24.3422 19.8755 24.8602 21.4295 24.8602 23.3895C24.8602 25.0695 24.3842 26.6095 23.4322 28.0095C22.5082 29.3815 21.1082 30.4735 19.2322 31.2855C17.3562 32.0975 15.0742 32.5035 12.3862 32.5035ZM51.9794 9.40351V31.9995H45.7214V29.3955C44.0974 31.3555 41.7454 32.3355 38.6654 32.3355C36.5374 32.3355 34.6054 31.8595 32.8694 30.9075C31.1614 29.9555 29.8174 28.5975 28.8374 26.8335C27.8574 25.0695 27.3674 23.0255 27.3674 20.7015C27.3674 18.3775 27.8574 16.3335 28.8374 14.5695C29.8174 12.8055 31.1614 11.4475 32.8694 10.4955C34.6054 9.54351 36.5374 9.06751 38.6654 9.06751C41.5494 9.06751 43.8034 9.97751 45.4274 11.7975V9.40351H51.9794ZM39.7994 26.9595C41.4514 26.9595 42.8234 26.3995 43.9154 25.2795C45.0074 24.1315 45.5534 22.6055 45.5534 20.7015C45.5534 18.7975 45.0074 17.2855 43.9154 16.1655C42.8234 15.0175 41.4514 14.4435 39.7994 14.4435C38.1194 14.4435 36.7334 15.0175 35.6414 16.1655C34.5494 17.2855 34.0034 18.7975 34.0034 20.7015C34.0034 22.6055 34.5494 24.1315 35.6414 25.2795C36.7334 26.3995 38.1194 26.9595 39.7994 26.9595ZM67.8394 32.5035C65.5154 32.5035 63.2614 32.1955 61.0774 31.5795C58.9214 30.9355 57.1854 30.1095 55.8694 29.1015L58.1794 23.9775C59.4394 24.9015 60.9374 25.6435 62.6734 26.2035C64.4094 26.7635 66.1454 27.0435 67.8814 27.0435C69.8134 27.0435 71.2414 26.7635 72.1654 26.2035C73.0894 25.6155 73.5514 24.8455 73.5514 23.8935C73.5514 23.1935 73.2714 22.6195 72.7114 22.1715C72.1794 21.6955 71.4794 21.3175 70.6114 21.0375C69.7714 20.7575 68.6234 20.4495 67.1674 20.1135C64.9274 19.5815 63.0934 19.0495 61.6654 18.5175C60.2374 17.9855 59.0054 17.1315 57.9694 15.9555C56.9614 14.7795 56.4574 13.2115 56.4574 11.2515C56.4574 9.54351 56.9194 8.00351 57.8434 6.63151C58.7674 5.23151 60.1534 4.12551 62.0014 3.31351C63.8774 2.50151 66.1594 2.09551 68.8474 2.09551C70.7234 2.09551 72.5574 2.31951 74.3494 2.76751C76.1414 3.21551 77.7094 3.85951 79.0534 4.69951L76.9534 9.86551C74.2374 8.32551 71.5214 7.55551 68.8054 7.55551C66.9014 7.55551 65.4874 7.86351 64.5634 8.47951C63.6674 9.09551 63.2194 9.90751 63.2194 10.9155C63.2194 11.9235 63.7374 12.6795 64.7734 13.1835C65.8374 13.6595 67.4474 14.1355 69.6034 14.6115C71.8434 15.1435 73.6774 15.6755 75.1054 16.2075C76.5334 16.7395 77.7514 17.5795 78.7594 18.7275C79.7954 19.8755 80.3134 21.4295 80.3134 23.3895C80.3134 25.0695 79.8374 26.6095 78.8854 28.0095C77.9614 29.3815 76.5614 30.4735 74.6854 31.2855C72.8094 32.0975 70.5274 32.5035 67.8394 32.5035ZM98.2346 9.06751C101.035 9.06751 103.289 9.90751 104.997 11.5875C106.733 13.2675 107.601 15.7595 107.601 19.0635V31.9995H101.049V20.0715C101.049 18.2795 100.657 16.9495 99.8726 16.0815C99.0886 15.1855 97.9546 14.7375 96.4706 14.7375C94.8186 14.7375 93.5026 15.2555 92.5226 16.2915C91.5426 17.2995 91.0526 18.8115 91.0526 20.8275V31.9995H84.5006V0.83551H91.0526V11.7555C91.9206 10.8875 92.9706 10.2295 94.2026 9.78151C95.4346 9.30551 96.7786 9.06751 98.2346 9.06751ZM136.718 9.40351V31.9995H130.46V29.3955C128.836 31.3555 126.484 32.3355 123.404 32.3355C121.276 32.3355 119.344 31.8595 117.608 30.9075C115.9 29.9555 114.556 28.5975 113.576 26.8335C112.596 25.0695 112.106 23.0255 112.106 20.7015C112.106 18.3775 112.596 16.3335 113.576 14.5695C114.556 12.8055 115.9 11.4475 117.608 10.4955C119.344 9.54351 121.276 9.06751 123.404 9.06751C126.288 9.06751 128.542 9.97751 130.166 11.7975V9.40351H136.718ZM124.538 26.9595C126.19 26.9595 127.562 26.3995 128.654 25.2795C129.746 24.1315 130.292 22.6055 130.292 20.7015C130.292 18.7975 129.746 17.2855 128.654 16.1655C127.562 15.0175 126.19 14.4435 124.538 14.4435C122.858 14.4435 121.472 15.0175 120.38 16.1655C119.288 17.2855 118.742 18.7975 118.742 20.7015C118.742 22.6055 119.288 24.1315 120.38 25.2795C121.472 26.3995 122.858 26.9595 124.538 26.9595Z" fill="#1A1A1A"/>
</svg>
