<svg width="14" height="15" viewBox="0 0 14 15" fill="none" xmlns="http://www.w3.org/2000/svg">
<path d="M12.7422 3.04688C12.9974 3.13802 13.1979 3.29297 13.3438 3.51172C13.4896 3.73047 13.5625 3.97656 13.5625 4.25C13.5625 5.39844 13.4258 6.5013 13.1523 7.55859C12.8789 8.59766 12.5326 9.5 12.1133 10.2656C11.694 11.013 11.2018 11.6966 10.6367 12.3164C10.0898 12.918 9.55208 13.401 9.02344 13.7656C8.51302 14.1484 8.0026 14.4401 7.49219 14.6406C7.16406 14.7865 6.83594 14.7865 6.50781 14.6406C5.74219 14.3307 5.00391 13.8659 4.29297 13.2461C3.60026 12.6445 2.96224 11.9154 2.37891 11.0586C1.79557 10.1836 1.32161 9.15365 0.957031 7.96875C0.610677 6.78385 0.4375 5.54427 0.4375 4.25C0.4375 4.14062 0.446615 4.04036 0.464844 3.94922C0.501302 3.83984 0.53776 3.73958 0.574219 3.64844C0.628906 3.55729 0.683594 3.47526 0.738281 3.40234C0.811198 3.32943 0.884115 3.26562 0.957031 3.21094C1.04818 3.13802 1.14844 3.08333 1.25781 3.04688L6.50781 0.859375C6.65365 0.786458 6.81771 0.75 7 0.75C7.18229 0.75 7.34635 0.786458 7.49219 0.859375L12.7422 3.04688Z" fill="#4B3EC4"/>
</svg>
