<svg width="18" height="15" viewBox="0 0 18 15" fill="none" xmlns="http://www.w3.org/2000/svg">
<path d="M17.0625 10.375C17.1901 10.375 17.2904 10.4206 17.3633 10.5117C17.4544 10.5846 17.5 10.6849 17.5 10.8125V11.6875C17.5 11.8151 17.4544 11.9245 17.3633 12.0156C17.2904 12.0885 17.1901 12.125 17.0625 12.125H15.75C15.75 12.8542 15.4948 13.474 14.9844 13.9844C14.474 14.4948 13.8542 14.75 13.125 14.75C12.3958 14.75 11.776 14.4948 11.2656 13.9844C10.7552 13.474 10.5 12.8542 10.5 12.125H7C7 12.8542 6.74479 13.474 6.23438 13.9844C5.72396 14.4948 5.10417 14.75 4.375 14.75C3.64583 14.75 3.02604 14.4948 2.51562 13.9844C2.00521 13.474 1.75 12.8542 1.75 12.125V8.625H5.90625C6.05208 8.625 6.125 8.55208 6.125 8.40625V7.96875C6.125 7.82292 6.05208 7.75 5.90625 7.75H0.21875C0.0729167 7.75 0 7.67708 0 7.53125V7.09375C0 6.94792 0.0729167 6.875 0.21875 6.875H6.78125C6.92708 6.875 7 6.80208 7 6.65625V6.21875C7 6.07292 6.92708 6 6.78125 6H1.09375C0.947917 6 0.875 5.92708 0.875 5.78125V5.34375C0.875 5.19792 0.947917 5.125 1.09375 5.125H7.65625C7.80208 5.125 7.875 5.05208 7.875 4.90625V4.46875C7.875 4.32292 7.80208 4.25 7.65625 4.25H0.21875C0.0729167 4.25 0 4.17708 0 4.03125V3.59375C0 3.44792 0.0729167 3.375 0.21875 3.375H1.75V2.0625C1.75 1.69792 1.8776 1.38802 2.13281 1.13281C2.38802 0.877604 2.69792 0.75 3.0625 0.75H10.0625C10.4271 0.75 10.737 0.877604 10.9922 1.13281C11.2474 1.38802 11.375 1.69792 11.375 2.0625V3.375H12.5781C12.9427 3.375 13.2526 3.5026 13.5078 3.75781L16.2422 6.49219C16.4974 6.7474 16.625 7.05729 16.625 7.42188V10.375H17.0625ZM3.44531 13.0547C3.70052 13.3099 4.01042 13.4375 4.375 13.4375C4.73958 13.4375 5.04948 13.3099 5.30469 13.0547C5.5599 12.7995 5.6875 12.4896 5.6875 12.125C5.6875 11.7604 5.5599 11.4505 5.30469 11.1953C5.04948 10.9401 4.73958 10.8125 4.375 10.8125C4.01042 10.8125 3.70052 10.9401 3.44531 11.1953C3.1901 11.4505 3.0625 11.7604 3.0625 12.125C3.0625 12.4896 3.1901 12.7995 3.44531 13.0547ZM12.1953 13.0547C12.4505 13.3099 12.7604 13.4375 13.125 13.4375C13.4896 13.4375 13.7995 13.3099 14.0547 13.0547C14.3099 12.7995 14.4375 12.4896 14.4375 12.125C14.4375 11.7604 14.3099 11.4505 14.0547 11.1953C13.7995 10.9401 13.4896 10.8125 13.125 10.8125C12.7604 10.8125 12.4505 10.9401 12.1953 11.1953C11.9401 11.4505 11.8125 11.7604 11.8125 12.125C11.8125 12.4896 11.9401 12.7995 12.1953 13.0547ZM15.3125 7.75V7.42188L12.5781 4.6875H11.375V7.75H15.3125Z" fill="#4B3EC4"/>
</svg>
