<svg width="17" height="11" viewBox="0 0 17 11" fill="none" xmlns="http://www.w3.org/2000/svg">
<path d="M6.91582 5.23779C8.0916 5.56592 8.66582 6.46826 8.66582 7.67139C8.66582 9.64014 7.0252 10.4878 5.24785 10.4878H0.57207V0.808105H5.13848C6.7791 0.808105 8.22832 1.27295 8.22832 3.21436C8.22832 4.17139 7.76348 4.80029 6.91582 5.23779ZM2.67754 2.44873V4.71826H4.8377C5.60332 4.71826 6.1502 4.39014 6.1502 3.56982C6.1502 2.66748 5.4666 2.44873 4.70098 2.44873H2.67754ZM4.97441 8.84717C5.82207 8.84717 6.53301 8.54639 6.53301 7.56201C6.53301 6.57764 5.95879 6.16748 5.00176 6.16748H2.67754V8.84717H4.97441ZM14.7635 2.25732H10.8533V1.30029H14.7635V2.25732ZM16.3221 7.09717C16.3221 7.20654 16.2947 7.34326 16.2947 7.45264H11.2361C11.2361 8.57373 11.8377 9.22998 12.9588 9.22998C13.533 9.22998 14.2986 8.9292 14.49 8.32764H16.1854C15.6658 9.91357 14.5721 10.6792 12.9041 10.6792C10.6893 10.6792 9.29473 9.17529 9.29473 6.98779C9.29473 4.88232 10.7439 3.26904 12.9041 3.26904C15.0916 3.26904 16.3221 5.01904 16.3221 7.09717ZM11.2361 6.22217H14.3807C14.2986 5.29248 13.8064 4.74561 12.8221 4.74561C11.9197 4.74561 11.2908 5.31982 11.2361 6.22217Z" fill="black"/>
</svg>
