<svg width="13" height="13" viewBox="0 0 13 13" fill="none" xmlns="http://www.w3.org/2000/svg">
<path d="M6.54531 3.58545C8.26797 3.58545 9.68984 5.00732 9.68984 6.72998C9.68984 8.47998 8.26797 9.87451 6.54531 9.87451C4.79531 9.87451 3.40078 8.47998 3.40078 6.72998C3.40078 5.00732 4.79531 3.58545 6.54531 3.58545ZM6.54531 8.78076C7.66641 8.78076 8.56875 7.87842 8.56875 6.72998C8.56875 5.60889 7.66641 4.70654 6.54531 4.70654C5.39687 4.70654 4.49453 5.60889 4.49453 6.72998C4.49453 7.87842 5.42422 8.78076 6.54531 8.78076ZM10.5375 3.47607C10.5375 3.88623 10.2094 4.21436 9.79922 4.21436C9.38906 4.21436 9.06094 3.88623 9.06094 3.47607C9.06094 3.06592 9.38906 2.73779 9.79922 2.73779C10.2094 2.73779 10.5375 3.06592 10.5375 3.47607ZM12.6156 4.21436C12.6703 5.22607 12.6703 8.26123 12.6156 9.27295C12.5609 10.2573 12.3422 11.105 11.6312 11.8433C10.9203 12.5542 10.0453 12.7729 9.06094 12.8276C8.04922 12.8823 5.01406 12.8823 4.00234 12.8276C3.01797 12.7729 2.17031 12.5542 1.43203 11.8433C0.721094 11.105 0.502344 10.2573 0.447656 9.27295C0.392969 8.26123 0.392969 5.22607 0.447656 4.21436C0.502344 3.22998 0.721094 2.35498 1.43203 1.64404C2.17031 0.933105 3.01797 0.714355 4.00234 0.659668C5.01406 0.60498 8.04922 0.60498 9.06094 0.659668C10.0453 0.714355 10.9203 0.933105 11.6312 1.64404C12.3422 2.35498 12.5609 3.22998 12.6156 4.21436ZM11.3031 10.3394C11.6312 9.54639 11.5492 7.63232 11.5492 6.72998C11.5492 5.85498 11.6312 3.94092 11.3031 3.12061C11.0844 2.60107 10.6742 2.16357 10.1547 1.97217C9.33437 1.64404 7.42031 1.72607 6.54531 1.72607C5.64297 1.72607 3.72891 1.64404 2.93594 1.97217C2.38906 2.19092 1.97891 2.60107 1.76016 3.12061C1.43203 3.94092 1.51406 5.85498 1.51406 6.72998C1.51406 7.63232 1.43203 9.54639 1.76016 10.3394C1.97891 10.8862 2.38906 11.2964 2.93594 11.5151C3.72891 11.8433 5.64297 11.7612 6.54531 11.7612C7.42031 11.7612 9.33437 11.8433 10.1547 11.5151C10.6742 11.2964 11.1117 10.8862 11.3031 10.3394Z" fill="black"/>
</svg>
