<?xml version="1.0" encoding="UTF-8"?>
<svg version="1.1" xmlns="http://www.w3.org/2000/svg" width="3000" height="2000">
<path d="M0 0 C0.33 -6.93 0.66 -13.86 1 -21 C35.65 -21 70.3 -21 106 -21 C106 94.5 106 210 106 329 C71.35 329 36.7 329 1 329 C1 322.07 1 315.14 1 308 C-1.041875 309.27875 -3.08375 310.5575 -5.1875 311.875 C-28.17822781 325.80034108 -52.42970289 334.18994008 -79 338 C-79.71051514 338.103125 -80.42103027 338.20625 -81.15307617 338.3125 C-128.17213186 344.35372317 -177.40230842 330.55373953 -215 302 C-219.85122828 298.20282425 -224.47308126 294.17652214 -229 290 C-229.57991699 289.46536133 -230.15983398 288.93072266 -230.75732422 288.37988281 C-262.34345368 258.87625954 -281.30294357 218.60037717 -287 176 C-287.13148438 175.07960938 -287.26296875 174.15921875 -287.3984375 173.2109375 C-291.80171197 135.72360079 -283.05967344 96.89530476 -265 64 C-264.65211426 63.36610352 -264.30422852 62.73220703 -263.94580078 62.07910156 C-255.82909227 47.50988839 -245.46176776 35.04367289 -234 23 C-233.34773438 22.29488281 -232.69546875 21.58976563 -232.0234375 20.86328125 C-217.78326232 5.92624643 -199.60164802 -5.38379679 -181 -14 C-179.30810547 -14.80050781 -179.30810547 -14.80050781 -177.58203125 -15.6171875 C-120.59954309 -41.40293244 -51.52577664 -34.90455837 0 0 Z M-160 90 C-160.76699219 90.67417969 -161.53398437 91.34835937 -162.32421875 92.04296875 C-173.25000133 102.206044 -180.35537522 114.95882411 -185 129 C-185.50853516 130.46179687 -185.50853516 130.46179687 -186.02734375 131.953125 C-190.57618119 147.63298862 -189.71491117 166.77804033 -184 182 C-183.57589844 183.17433594 -183.15179687 184.34867188 -182.71484375 185.55859375 C-173.81709301 208.18713532 -155.95696733 225.49825906 -133.9375 235.375 C-107.26798193 246.04885474 -79.00070222 246.02464609 -52.58984375 234.75 C-30.70941791 224.08359001 -12.91235577 205.92243531 -4.23681641 182.98193359 C3.42535924 160.29252309 1.17504366 136.45138617 -9 115 C-21.7898909 91.44451749 -42.54873542 75.62239719 -68 68 C-100.22859709 59.29400792 -135.31226785 67.48945368 -160 90 Z " fill="#000000" transform="translate(2371,919)"/>
<path d="M0 0 C0 -6.93 0 -13.86 0 -21 C34.65 -21 69.3 -21 105 -21 C105 94.5 105 210 105 329 C70.35 329 35.7 329 0 329 C-0.33 322.4 -0.66 315.8 -1 309 C-2.29550781 309.7734375 -3.59101562 310.546875 -4.92578125 311.34375 C-49.79270546 337.78561903 -100.51044307 346.10327412 -151.4375 333.4375 C-200.17045373 320.42734493 -240.32967169 288.0246672 -265.53125 244.70703125 C-275.57679813 226.83496313 -282.51901364 207.20138178 -286 187 C-286.17370117 186.09483643 -286.34740234 185.18967285 -286.52636719 184.25708008 C-288.24141363 174.5621763 -288.39839258 165.00163148 -288.375 155.1875 C-288.37445618 154.32861176 -288.37391235 153.46972351 -288.37335205 152.58480835 C-288.33218965 138.41127609 -287.40854747 124.81180002 -284 111 C-283.79101074 110.14535156 -283.58202148 109.29070312 -283.36669922 108.41015625 C-273.54601873 69.74536475 -251.10300556 33.07725417 -219 9 C-218.071875 8.2678125 -217.14375 7.535625 -216.1875 6.78125 C-154.1054931 -41.43137238 -65.10041689 -43.40027793 0 0 Z M-157 87 C-157.81339844 87.66773438 -158.62679688 88.33546875 -159.46484375 89.0234375 C-175.73125564 102.90878756 -186.22513767 122.78656647 -189 144 C-190.62391551 171.59067416 -182.40642792 194.31490153 -164.171875 215.08203125 C-149.32882236 230.89175329 -126.22201617 242.07775474 -104.44555664 243.12255859 C-73.14443113 244.00684688 -48.10344172 236.17344828 -25 214.4375 C-15.08074626 204.23751266 -8.4401668 192.43773254 -4 179 C-3.49146484 177.52080078 -3.49146484 177.52080078 -2.97265625 176.01171875 C3.33235794 154.07491823 -1.21769879 130.66378108 -11.84521484 110.98681641 C-24.34776042 89.47609424 -45.4921587 74.55738371 -69.24609375 67.96484375 C-99.84314219 60.10067001 -132.68943759 66.45228986 -157 87 Z " fill="#000000" transform="translate(1268,919)"/>
<path d="M0 0 C1.01900391 0.32242676 1.01900391 0.32242676 2.05859375 0.65136719 C36.23169937 11.79259899 65.83180685 35.89816409 82.23925781 68.04541016 C92.95573221 90.0944268 95.3080378 112.35883321 95.22705078 136.50708008 C95.22648588 138.8734995 95.22680476 141.23991928 95.22793579 143.6063385 C95.22850724 149.9979579 95.21678667 156.38950151 95.20278788 162.78110337 C95.19151835 168.79387136 95.18953802 174.80663671 95.18748413 180.81941303 C95.18311966 192.71954801 95.16984464 204.61965538 95.15087891 216.51977539 C95.13248765 228.07153183 95.11837005 239.62328071 95.10986328 251.17504883 C95.10932729 251.89576559 95.10879129 252.61648235 95.10823905 253.35903901 C95.10361263 259.62939831 95.09930737 265.89975783 95.09503365 272.17011738 C95.07625424 299.11343758 95.03640169 326.05668449 95 353 C60.35 353 25.7 353 -10 353 C-10.03738281 338.97628906 -10.07476563 324.95257812 -10.11328125 310.50390625 C-10.14356795 301.60350586 -10.17459986 292.70311832 -10.20898438 283.80273438 C-10.26338636 269.68515203 -10.31480301 255.56760536 -10.34643555 241.44995117 C-10.36949163 231.16624322 -10.40297401 220.8826296 -10.44870156 210.59899658 C-10.47253152 205.159653 -10.49132707 199.72040225 -10.49761391 194.28100777 C-10.50371134 189.14853502 -10.52387706 184.01629946 -10.55427551 178.88391495 C-10.56298173 177.01244321 -10.56679395 175.14094037 -10.56500816 173.26944923 C-10.55100773 151.80360892 -13.02908109 130.25631765 -27 113 C-27.90878906 111.76830078 -27.90878906 111.76830078 -28.8359375 110.51171875 C-39.40431216 98.2455366 -56.37478055 92.57096801 -72 91 C-95.19389371 89.38963708 -117.67569136 94.34482077 -136.1875 109.125 C-150.86863417 122.7662205 -158.18082546 143.41791921 -159.09686577 163.07904637 C-159.14020257 165.16432352 -159.15537294 167.2476679 -159.15821838 169.33338928 C-159.16315636 170.12103761 -159.16809434 170.90868593 -159.17318195 171.72020239 C-159.18841148 174.33177688 -159.19687764 176.94332709 -159.20532227 179.55493164 C-159.21491226 181.43801076 -159.22492299 183.32108777 -159.23532104 185.2041626 C-159.26225471 190.29642893 -159.28332643 195.38870443 -159.30332303 200.48100209 C-159.32525411 205.81014103 -159.35260783 211.13925211 -159.37937927 216.46836853 C-159.42921014 226.55097942 -159.47418445 236.63360585 -159.51740164 246.71624702 C-159.57610959 260.34716629 -159.64234463 273.97804886 -159.70815182 287.60893536 C-159.81157616 309.07259881 -159.90496522 330.53629396 -160 352 C-194.98 352 -229.96 352 -266 352 C-266 236.5 -266 121 -266 2 C-231.35 2 -196.7 2 -161 2 C-160.505 19.82 -160.505 19.82 -160 38 C-157.03 34.37 -154.06 30.74 -151 27 C-112.06808017 -11.14024203 -49.93117278 -15.83570316 0 0 Z " fill="#000000" transform="translate(1952,896)"/>
<path d="M0 0 C37.95 0 75.9 0 115 0 C115 43.67317062 108.42205726 86.41702281 95 128 C94.70480469 128.91604004 94.40960937 129.83208008 94.10546875 130.77587891 C77.66592564 181.09852144 50.39299857 229.63183277 14.2734375 268.54296875 C12.25815584 270.72099653 10.30727564 272.93609286 8.375 275.1875 C4.78368808 279.32736554 0.91924198 283.17237666 -3 287 C0.66248902 292.76172052 4.64756721 298.1956872 8.84228516 303.58032227 C12.41475399 308.1894742 15.84835274 312.88871066 19.25 317.625 C25.50910298 326.33781928 31.85841558 334.980972 38.23388672 343.60888672 C41.74312623 348.35999147 45.24461276 353.11681291 48.74755859 357.87255859 C51.67420749 361.84531489 54.60270774 365.81667846 57.53515625 369.78515625 C63.77471072 378.23340257 69.9706422 386.71006584 76.10791016 395.23291016 C81.75718083 403.06877486 87.49312892 410.83992854 93.23388672 418.60888672 C96.15956103 422.56991162 99.07950306 426.53515717 102 430.5 C103.1666389 432.08335379 104.33330558 433.66668712 105.5 435.25 C107.83333333 438.41666667 110.16666667 441.58333333 112.5 444.75 C113.07758057 445.53383057 113.65516113 446.31766113 114.25024414 447.12524414 C115.41620806 448.70768185 116.58206104 450.29020131 117.74780273 451.87280273 C120.67431443 455.84551887 123.60277534 459.81676994 126.53515625 463.78515625 C132.92853123 472.44182129 139.28516904 481.12238699 145.56274414 489.86352539 C146.30512329 490.8959436 146.30512329 490.8959436 147.0625 491.94921875 C147.54074219 492.6148584 148.01898437 493.28049805 148.51171875 493.96630859 C150.58650886 496.80144666 152.73725521 499.57721633 154.8984375 502.34692383 C156 504 156 504 156 506 C137.45009129 506.39811592 118.90105553 506.6973752 100.34775257 506.88080692 C91.73176113 506.96826556 83.11843196 507.08735675 74.50415039 507.2824707 C66.99071354 507.45256851 59.47920479 507.56173597 51.96389598 507.59950441 C47.98773481 507.62156939 44.01708598 507.67291375 40.04270363 507.79741096 C13.94861515 508.58382873 13.94861515 508.58382873 7.21308899 502.27557373 C4.2395303 498.78428011 1.99066235 495.07974819 -0.01605511 490.96599102 C-1.27834822 488.4438407 -2.88198323 486.28331772 -4.62109375 484.0703125 C-5.56217752 482.75684013 -6.50104737 481.44177819 -7.4375 480.125 C-8.52005441 478.61532656 -9.60341612 477.10623176 -10.6875 475.59765625 C-11.23019531 474.84242676 -11.77289062 474.08719727 -12.33203125 473.30908203 C-16.91433672 466.96548644 -21.5833189 460.68471914 -26.23388672 454.39111328 C-29.15956103 450.43008838 -32.07950306 446.46484283 -35 442.5 C-36.1666389 440.91664621 -37.33330558 439.33331288 -38.5 437.75 C-40.83333333 434.58333333 -43.16666667 431.41666667 -45.5 428.25 C-46.07758057 427.46616943 -46.65516113 426.68233887 -47.25024414 425.87475586 C-48.41620806 424.29231815 -49.58206104 422.70979869 -50.74780273 421.12719727 C-53.67431443 417.15448113 -56.60277534 413.18323006 -59.53515625 409.21484375 C-65.77471072 400.76659743 -71.9706422 392.28993416 -78.10791016 383.76708984 C-83.75718083 375.93122514 -89.49312892 368.16007146 -95.23388672 360.39111328 C-98.74312623 355.64000853 -102.24461276 350.88318709 -105.74755859 346.12744141 C-108.67420749 342.15468511 -111.60270774 338.18332154 -114.53515625 334.21484375 C-120.82364887 325.70008217 -127.06485206 317.15490117 -133.24414062 308.56054688 C-136.79089441 303.64002 -140.4042263 298.77553408 -144.0625 293.9375 C-150.24122637 285.76487079 -156.1363318 277.40043245 -162 269 C-157.94505269 264.73037901 -153.53763505 261.14949245 -148.875 257.5625 C-148.09092773 256.95559326 -147.30685547 256.34868652 -146.49902344 255.72338867 C-140.8080225 251.33878761 -135.04548581 247.05762726 -129.25 242.8125 C-118.54167549 234.96705546 -108.00142657 227.03871128 -98.22265625 218.0390625 C-96.20437897 216.18749705 -94.14650865 214.40167 -92.0625 212.625 C-84.12975122 205.70391756 -76.72133272 198.098655 -70 190 C-69.1646875 189.01515625 -68.329375 188.0303125 -67.46875 187.015625 C-53.67936497 170.47454121 -41.82163271 152.15326786 -32 133 C-31.62858887 132.2869873 -31.25717773 131.57397461 -30.87451172 130.83935547 C-9.59463118 89.59635031 -2.9639523 45.94126062 0 0 Z " fill="#000000" transform="translate(638,742)"/>
<path d="M0 0 C38.61 0 77.22 0 117 0 C117 166.98 117 333.96 117 506 C78.39 506 39.78 506 0 506 C0 339.02 0 172.04 0 0 Z " fill="#000000" transform="translate(346,742)"/>
<path d="M0 0 C36.63 0 73.26 0 111 0 C111 166.98 111 333.96 111 506 C74.37 506 37.74 506 0 506 C0 339.02 0 172.04 0 0 Z " fill="#000000" transform="translate(827,742)"/>
<path d="M0 0 C35.64 0 71.28 0 108 0 C108.33 14.19 108.66 28.38 109 43 C113.455 38.05 113.455 38.05 118 33 C143.55446586 9.58764402 176.95328698 0 211 0 C211 33.99 211 67.98 211 103 C201.1 103.99 201.1 103.99 191 105 C163.05815071 111.38042228 135.7813961 124.6319187 120.05761719 149.60717773 C111.36808987 164.09953529 109.70199708 178.42110238 109.68115234 194.92431641 C109.67184022 196.62035595 109.66166966 198.31639095 109.65071106 200.01242065 C109.62354169 204.59018532 109.60830062 209.16791943 109.59528303 213.74574327 C109.57959501 218.53970858 109.55282301 223.33361202 109.5272522 228.12753296 C109.48056447 237.19366418 109.44377208 246.25980717 109.41057932 255.32599676 C109.36511937 267.58550716 109.30428328 279.84494079 109.24433136 292.10438728 C109.15036006 311.40288626 109.07685459 330.70140768 109 350 C73.03 350 37.06 350 0 350 C0 234.5 0 119 0 0 Z " fill="#000000" transform="translate(1427,898)"/>
<path d="M0 0 C14.08800966 10.09608396 24.87219174 24.20800024 28.5625 41.4140625 C30.93473856 60.85794639 28.98371389 79.52407359 16.78369141 95.60302734 C4.84018975 110.31969034 -10.146225 119.43351754 -29 122 C-48.06485829 123.57117425 -65.91437383 118.62837399 -80.69140625 106.12109375 C-93.71010758 94.15974887 -102.16565113 78.8693403 -103.23828125 61.0390625 C-103.69810928 42.85008001 -99.86210348 26.70592536 -87.5625 12.625 C-64.78358291 -11.19634211 -28.7300052 -19.22469797 0 0 Z " fill="#000000" transform="translate(2625,1134)"/>
<path d="M0 0 C6.24690632 3.79713914 12.49439812 8.44405432 14.73046875 15.69921875 C16.3836856 23.79574232 15.93702143 31.55746245 11.81640625 38.77734375 C8.00992526 43.82526698 2.14573408 48.10277036 -4.109375 49.421875 C-13.15853613 50.40172047 -19.28392473 49.01771209 -26.765625 43.703125 C-32.07478515 39.12346777 -35.07269998 32.876314 -35.8125 25.9375 C-36.14788163 18.09472965 -33.82698882 11.96942133 -28.8125 5.9375 C-20.21719608 -1.28138387 -10.90783338 -3.03988799 0 0 Z M-24.75 10.9375 C-28.42085571 16.27692648 -30.38966911 20.66370018 -29.484375 27.3671875 C-27.84341078 34.28869044 -24.64237807 37.98562613 -18.8125 41.9375 C-14.70387459 44.29995961 -10.46455906 44.60822201 -5.8125 43.9375 C0.85862724 41.95994258 4.69632044 37.82056037 8.1875 31.9375 C10.09698276 26.20905171 10.09935715 20.16187495 7.5625 14.625 C4.77833422 9.77231669 1.35704613 6.88667643 -3.8125 4.625 C-11.69026563 2.81967871 -19.33827988 4.62916352 -24.75 10.9375 Z " fill="#000000" transform="translate(2556.8125,890.0625)"/>
<path d="M0 0 C2.371875 -0.103125 4.74375 -0.20625 7.1875 -0.3125 C7.92508545 -0.35802002 8.6626709 -0.40354004 9.42260742 -0.45043945 C13.29280281 -0.53144962 14.87826251 -0.09455963 17.95703125 2.296875 C20 5 20 5 20.5 8.5625 C20 12 20 12 18.38671875 13.85546875 C16.68993302 15.97263556 16.68993302 15.97263556 17.36328125 18.796875 C17.67652344 19.77140625 17.98976563 20.7459375 18.3125 21.75 C18.61800781 22.73484375 18.92351563 23.7196875 19.23828125 24.734375 C19.48964844 25.48203125 19.74101562 26.2296875 20 27 C18.02 27 16.04 27 14 27 C13.75765625 26.43410156 13.5153125 25.86820313 13.265625 25.28515625 C12.93046875 24.55167969 12.5953125 23.81820312 12.25 23.0625 C11.92515625 22.33160156 11.6003125 21.60070312 11.265625 20.84765625 C9.97377317 18.52359666 9.97377317 18.52359666 6 18 C6 20.97 6 23.94 6 27 C4.02 27 2.04 27 0 27 C0 18.09 0 9.18 0 0 Z M6 5 C6 7.31 6 9.62 6 12 C8.33294775 12.04241723 10.66702567 12.04092937 13 12 C14.28322547 10.9404123 14.28322547 10.9404123 14.125 8.5 C14.28322547 6.0595877 14.28322547 6.0595877 13 5 C10.66702567 4.95907063 8.33294775 4.95758277 6 5 Z " fill="#000000" transform="translate(2538,900)"/>
</svg>
