<?xml version="1.0" encoding="UTF-8"?>
<svg version="1.1" xmlns="http://www.w3.org/2000/svg" width="500" height="500">
<path d="M0 0 C0.65226563 0.55945313 1.30453125 1.11890625 1.9765625 1.6953125 C5.58583984 0.39723907 8.31560898 -1.16462314 11.3515625 -3.4921875 C20.75801733 -10.22109706 31.95556386 -14.9347496 42.9765625 -18.3046875 C44.10320312 -18.67722656 45.22984375 -19.04976562 46.390625 -19.43359375 C76.74372426 -28.36232664 110.74279975 -22.68060586 138.16796875 -8.14306641 C141.9009154 -6.05991674 145.5911136 -3.92385668 148.9765625 -1.3046875 C148.9765625 -0.6446875 148.9765625 0.0153125 148.9765625 0.6953125 C149.688125 0.92605469 150.3996875 1.15679687 151.1328125 1.39453125 C154.54189435 2.95390523 156.74374319 4.94771352 159.4765625 7.5078125 C160.394375 8.35988281 161.3121875 9.21195313 162.2578125 10.08984375 C164.86760244 12.59089244 167.43543462 15.12463662 169.9765625 17.6953125 C170.51539063 18.23671875 171.05421875 18.778125 171.609375 19.3359375 C195.14479942 44.71969369 202.31052034 76.88212691 201.140625 110.52636719 C199.56017867 141.0534407 185.41236587 168.9927656 163.71875 190.2890625 C161.9765625 191.6953125 161.9765625 191.6953125 159.9765625 191.6953125 C159.9765625 192.3553125 159.9765625 193.0153125 159.9765625 193.6953125 C143.34424875 208.73670928 122.92191193 218.53944932 100.9765625 222.6953125 C100.07752197 222.86732178 99.17848145 223.03933105 98.25219727 223.21655273 C92.61323196 224.04073183 86.93669577 223.92041441 81.2487793 223.93554688 C79.07625466 223.94514813 76.90472092 223.97616868 74.73242188 224.0078125 C50.21822577 224.19396093 27.24849769 215.8844848 7.2109375 201.9453125 C4.82146313 200.36982473 4.82146313 200.36982473 0.9765625 200.6953125 C-1.48220736 202.1497353 -1.48220736 202.1497353 -4.0859375 204.1328125 C-23.95581368 217.79183605 -46.19673524 224.08536295 -70.20385742 224.01098633 C-72.32328077 224.00783134 -74.44129511 224.03136762 -76.56054688 224.05664062 C-103.05428646 224.1797387 -126.96795545 214.30222682 -148.0234375 198.6953125 C-148.80203125 198.15519531 -149.580625 197.61507812 -150.3828125 197.05859375 C-150.92421875 196.60871094 -151.465625 196.15882813 -152.0234375 195.6953125 C-152.0234375 195.0353125 -152.0234375 194.3753125 -152.0234375 193.6953125 C-152.57902344 193.46070313 -153.13460937 193.22609375 -153.70703125 192.984375 C-173.20884632 182.13176291 -185.48772057 153.97819267 -191.47314453 133.64990234 C-200.24064104 102.5085638 -195.49641769 67.74410181 -180.0234375 39.6953125 C-179.4871875 38.70660156 -178.9509375 37.71789062 -178.3984375 36.69921875 C-177.29277512 34.68578243 -176.17254743 32.68415661 -175.0234375 30.6953125 C-174.3634375 30.6953125 -173.7034375 30.6953125 -173.0234375 30.6953125 C-172.80945313 30.01210937 -172.59546875 29.32890625 -172.375 28.625 C-170.60880686 24.79654667 -168.16389437 21.97379939 -165.3984375 18.8203125 C-164.85429199 18.19608398 -164.31014648 17.57185547 -163.74951172 16.92871094 C-159.79052903 12.44538299 -155.78922882 8.33038004 -151.0234375 4.6953125 C-150.03214844 3.92960937 -149.04085937 3.16390625 -148.01953125 2.375 C-136.34531201 -6.41168125 -123.16459371 -14.31995803 -109.0234375 -18.3046875 C-107.80269531 -18.67464844 -106.58195312 -19.04460937 -105.32421875 -19.42578125 C-70.34678614 -28.94369827 -28.91696425 -22.04264717 0 0 Z " fill="#F69E1A" transform="translate(247.0234375,149.3046875)"/>
<path d="M0 0 C0.48855469 0.45761719 0.97710937 0.91523438 1.48046875 1.38671875 C1.48046875 2.37671875 1.48046875 3.36671875 1.48046875 4.38671875 C2.14046875 4.38671875 2.80046875 4.38671875 3.48046875 4.38671875 C2.13443393 8.4248232 -0.17289848 9.85966951 -3.51953125 12.38671875 C-4.17953125 12.38671875 -4.83953125 12.38671875 -5.51953125 12.38671875 C-5.74640625 12.94359375 -5.97328125 13.50046875 -6.20703125 14.07421875 C-7.53110083 16.40710325 -9.06994723 17.95393543 -10.98046875 19.80859375 C-33.98293859 43.39488262 -41.95379208 75.09968525 -41.66796875 107.1328125 C-41.13203286 136.57853613 -28.77077616 165.82657123 -7.51953125 186.38671875 C-6.46378906 187.45986328 -6.46378906 187.45986328 -5.38671875 188.5546875 C-4.72929687 189.22113281 -4.071875 189.88757813 -3.39453125 190.57421875 C-2.73195312 191.24839844 -2.069375 191.92257812 -1.38671875 192.6171875 C0.55990192 194.56225233 0.55990192 194.56225233 3.48046875 196.38671875 C1.16539568 203.97283389 -6.10489078 207.02596941 -12.71826172 210.5625 C-31.05429235 220.00542121 -49.0016944 224.76651799 -69.69995117 224.70239258 C-71.81937452 224.69923759 -73.93738886 224.72277387 -76.05664062 224.74804688 C-102.55038021 224.87114495 -126.4640492 214.99363307 -147.51953125 199.38671875 C-148.298125 198.84660156 -149.07671875 198.30648437 -149.87890625 197.75 C-150.4203125 197.30011719 -150.96171875 196.85023438 -151.51953125 196.38671875 C-151.51953125 195.72671875 -151.51953125 195.06671875 -151.51953125 194.38671875 C-152.07511719 194.15210938 -152.63070312 193.9175 -153.203125 193.67578125 C-172.70494007 182.82316916 -184.98381432 154.66959892 -190.96923828 134.34130859 C-199.73673479 103.19997005 -194.99251144 68.43550806 -179.51953125 40.38671875 C-178.98328125 39.39800781 -178.44703125 38.40929687 -177.89453125 37.390625 C-176.78886887 35.37718868 -175.66864118 33.37556286 -174.51953125 31.38671875 C-173.85953125 31.38671875 -173.19953125 31.38671875 -172.51953125 31.38671875 C-172.30554688 30.70351562 -172.0915625 30.0203125 -171.87109375 29.31640625 C-170.10490061 25.48795292 -167.65998812 22.66520564 -164.89453125 19.51171875 C-164.35038574 18.88749023 -163.80624023 18.26326172 -163.24560547 17.62011719 C-159.28662278 13.13678924 -155.28532257 9.02178629 -150.51953125 5.38671875 C-149.52824219 4.62101562 -148.53695312 3.8553125 -147.515625 3.06640625 C-135.84140576 -5.720275 -122.66068746 -13.62855178 -108.51953125 -17.61328125 C-107.29878906 -17.98324219 -106.07804687 -18.35320312 -104.8203125 -18.734375 C-68.45781697 -28.62918972 -31.07438386 -19.89724114 0 0 Z " fill="#E9001B" transform="translate(246.51953125,148.61328125)"/>
<path d="M0 0 C2 1.375 2 1.375 4 3 C4 3.66 4 4.32 4 5 C4.680625 5.165 5.36125 5.33 6.0625 5.5 C10.46689076 7.7490506 12.94615844 11.17104216 16 15 C16.42603516 15.53254395 16.85207031 16.06508789 17.29101562 16.61376953 C18.68219775 18.36061809 20.06218422 20.11563745 21.4375 21.875 C21.88697998 22.44645752 22.33645996 23.01791504 22.79956055 23.60668945 C26 27.76409568 26 27.76409568 26 30 C26.66 30 27.32 30 28 30 C33.45326206 40.40825652 38.40587757 50.79606647 42 62 C42.21172852 62.63969727 42.42345703 63.27939453 42.64160156 63.93847656 C51.43303247 91.67815792 47.07163083 125.37811394 34 151 C31.19403677 156.12292041 28.12044931 161.06486879 25 166 C24.67 166.66 24.34 167.32 24 168 C23.34 168 22.68 168 22 168 C21.76023437 168.55816406 21.52046875 169.11632812 21.2734375 169.69140625 C19.72295913 172.50224281 17.80718126 174.5849491 15.625 176.9375 C13.29133239 179.46238787 11.02691976 181.96593826 8.89453125 184.6640625 C6.53580307 187.57235003 4.33666077 189.29762206 1 191 C-4.21299951 190.33166673 -7.55690462 185.64005211 -11 182 C-11.80824219 181.20078125 -12.61648437 180.4015625 -13.44921875 179.578125 C-36.55116921 156.22852729 -46.40451394 125.1109475 -46.44116211 92.90698242 C-45.86941415 62.90927263 -34.29231902 32.56390472 -13 11 C-8.83754816 7.12660731 -4.48031662 3.50024736 0 0 Z " fill="#FE5E01" transform="translate(250,154)"/>
<path d="M0 0 C0.79986328 0.00021149 1.59972656 0.00042297 2.42382812 0.00064087 C19.07209835 0.04465632 33.21462593 2.09189946 48.4375 9.375 C48.4375 9.705 48.4375 10.035 48.4375 10.375 C46.97869891 10.23392253 45.52046449 10.08697585 44.0625 9.9375 C42.84433594 9.81568359 42.84433594 9.81568359 41.6015625 9.69140625 C39.4375 9.375 39.4375 9.375 37.4375 8.375 C37.4375 7.715 37.4375 7.055 37.4375 6.375 C35.9834375 6.4059375 35.9834375 6.4059375 34.5 6.4375 C31.4375 6.375 31.4375 6.375 30.4375 5.375 C28.10763877 5.16531249 25.77305964 5.00684611 23.4375 4.875 C16.54861111 4.48611111 16.54861111 4.48611111 15.4375 3.375 C-1.76129535 2.18974314 -19.31424894 2.42476642 -35.25 9.53125 C-38.57754065 10.74535267 -41.81625081 10.95252039 -45.3359375 11.1015625 C-47.61466226 11.24618488 -47.61466226 11.24618488 -49.6015625 12.4609375 C-52.02172753 13.58906223 -53.10055751 13.25426518 -55.5625 12.375 C-46.75934254 7.98804445 -38.16360313 4.61729585 -28.5625 2.375 C-27.44355347 2.10792236 -27.44355347 2.10792236 -26.30200195 1.83544922 C-17.58805767 -0.01604678 -8.86420469 -0.02154051 0 0 Z " fill="#EEBC69" transform="translate(325.5625,126.625)"/>
<path d="M0 0 C0.99 0.33 1.98 0.66 3 1 C2.38125 1.2475 1.7625 1.495 1.125 1.75 C-1.44249816 3.26029304 -1.71815729 4.36091208 -3 7 C-4.14715389 8.14715389 -5.29689164 9.29186556 -6.4609375 10.421875 C-27.26013246 31.74896831 -37.20952196 61.63811611 -37.1875 91 C-37.18669434 92.10835205 -37.18588867 93.2167041 -37.18505859 94.35864258 C-37.10634988 104.94187765 -36.39620951 114.91042758 -33 125 C-32.875 127.875 -32.875 127.875 -33 130 C-33.66 130 -34.32 130 -35 130 C-35.19916016 128.93458984 -35.19916016 128.93458984 -35.40234375 127.84765625 C-35.57894531 126.92855469 -35.75554687 126.00945312 -35.9375 125.0625 C-36.11152344 124.14597656 -36.28554687 123.22945313 -36.46484375 122.28515625 C-36.77714988 120.04710156 -36.77714988 120.04710156 -38 119 C-39.36028884 108.30985705 -39.21726332 97.404593 -39.24023438 86.64648438 C-39.25010653 83.84476807 -39.28131753 81.04373787 -39.3125 78.2421875 C-39.3190171 76.45052512 -39.32427261 74.6588576 -39.328125 72.8671875 C-39.3404718 72.03492645 -39.3528186 71.20266541 -39.36553955 70.34518433 C-39.34828879 65.88829476 -39.19964555 63.37017861 -36 60 C-35.28116168 57.98287954 -34.64126172 55.93668338 -34.0625 53.875 C-31.70509703 45.85803036 -28.73349247 38.46698493 -25 31 C-24.855625 30.29875 -24.71125 29.5975 -24.5625 28.875 C-23.75797017 26.19323392 -21.98721156 24.96293498 -20 23 C-18.52060766 21.26776606 -17.06338257 19.51643474 -15.625 17.75 C-14.84125 16.78964844 -14.0575 15.82929688 -13.25 14.83984375 C-10.80945152 11.75949871 -8.51048846 8.60448463 -6.2890625 5.36328125 C-5.86367187 4.91339844 -5.43828125 4.46351563 -5 4 C-4.01 4 -3.02 4 -2 4 C-1.34 2.68 -0.68 1.36 0 0 Z " fill="#E21209" transform="translate(242,158)"/>
<path d="M0 0 C0.78890625 0.65162109 0.78890625 0.65162109 1.59375 1.31640625 C-0.38625 1.31640625 -2.36625 1.31640625 -4.40625 1.31640625 C-4.40625 0.65640625 -4.40625 -0.00359375 -4.40625 -0.68359375 C-5.210625 -0.80734375 -6.015 -0.93109375 -6.84375 -1.05859375 C-18.8956117 -3.17295545 -18.8956117 -3.17295545 -20.40625 -4.68359375 C-21.6025 -4.66296875 -22.79875 -4.64234375 -24.03125 -4.62109375 C-28.15169405 -4.57013419 -31.4436551 -5.49481528 -35.40625 -6.68359375 C-48.78354415 -9.90284502 -71.58777785 -12.09282982 -84.40625 -5.68359375 C-87.0786121 -5.54943903 -89.72875488 -5.64040834 -92.40625 -5.68359375 C-75.39842388 -22.69141987 -17.46875146 -12.22245435 0 0 Z " fill="#DA5E6F" transform="translate(228.40625,138.68359375)"/>
<path d="M0 0 C-16.26474944 7.95310393 -32.150355 11.37153289 -50.18041992 11.31567383 C-52.29984327 11.31251884 -54.41785761 11.33605512 -56.53710938 11.36132812 C-68.16335651 11.41508547 -78.96183878 9.85953355 -90 6 C-90 5.67 -90 5.34 -90 5 C-87.85423363 4.97314062 -85.70837355 4.95366912 -83.5625 4.9375 C-82.36753906 4.92589844 -81.17257812 4.91429687 -79.94140625 4.90234375 C-77 5 -77 5 -76 6 C-66.96446019 7.90174273 -57.89145952 8.38345268 -48.6875 8.625 C-47.45837891 8.66367187 -46.22925781 8.70234375 -44.96289062 8.7421875 C-41.97539746 8.8351834 -38.98789095 8.92102491 -36 9 C-36 8.34 -36 7.68 -36 7 C-35.35933594 6.95101563 -34.71867187 6.90203125 -34.05859375 6.8515625 C-28.78255173 6.39551118 -24.09649469 5.48261664 -19 4 C-16.00772923 3.56703478 -13.01190458 3.25952919 -10 3 C-10 2.34 -10 1.68 -10 1 C-8.71073008 0.63720544 -7.41846728 0.28503302 -6.125 -0.0625 C-5.40570313 -0.25972656 -4.68640625 -0.45695312 -3.9453125 -0.66015625 C-2 -1 -2 -1 0 0 Z " fill="#EFBB69" transform="translate(378,362)"/>
<path d="M0 0 C-16.5726294 8.25249301 -33.35657685 11.36361682 -51.72973633 11.20581055 C-53.95861051 11.18732492 -56.187072 11.18530319 -58.41601562 11.18554688 C-70.21677249 11.14511894 -70.21677249 11.14511894 -75 10 C-75 9.67 -75 9.34 -75 9 C-74.04633545 9.00523682 -73.0926709 9.01047363 -72.11010742 9.01586914 C-68.57105447 9.03397265 -65.03200562 9.04545161 -61.49291992 9.05493164 C-59.9613374 9.0599596 -58.42975967 9.06678284 -56.89819336 9.07543945 C-54.69643978 9.08757229 -52.49474967 9.09324367 -50.29296875 9.09765625 C-49.26625313 9.10539818 -49.26625313 9.10539818 -48.21879578 9.11329651 C-45.19093758 9.1136536 -42.89849858 8.96616619 -40 8 C-37.16745739 7.73484371 -34.33540184 7.55612734 -31.49609375 7.37890625 C-28.83147214 7.22678887 -28.83147214 7.22678887 -27 5 C-23.375 4.875 -23.375 4.875 -20 5 C-20 4.34 -20 3.68 -20 3 C-16.57190333 1.00378646 -13.34067705 0.4030831 -9.4375 -0.1875 C-8.30183594 -0.36667969 -7.16617188 -0.54585938 -5.99609375 -0.73046875 C-3 -1 -3 -1 0 0 Z " fill="#E5828E" transform="translate(228,362)"/>
<path d="M0 0 C-0.66 0 -1.32 0 -2 0 C-2.33 0.99 -2.66 1.98 -3 3 C-1.68 3.66 -0.36 4.32 1 5 C1 5.33 1 5.66 1 6 C-1.97 6.66 -4.94 7.32 -8 8 C-8 7.34 -8 6.68 -8 6 C-8.99 5.67 -9.98 5.34 -11 5 C-11 5.66 -11 6.32 -11 7 C-18.28571429 10.42857143 -18.28571429 10.42857143 -23 10 C-23.0928125 10.928125 -23.0928125 10.928125 -23.1875 11.875 C-24 14 -24 14 -26.375 15.25 C-29 16 -29 16 -32 16 C-32.2475 16.598125 -32.495 17.19625 -32.75 17.8125 C-34.20864875 20.36513531 -35.43626682 21.56732558 -38 23 C-40.1328125 22.57421875 -40.1328125 22.57421875 -42 22 C-32.81086428 14.44150423 -23.88905806 8.26814762 -13.1875 3.0625 C-12.35033447 2.64814697 -11.51316895 2.23379395 -10.65063477 1.80688477 C-9.85197998 1.42846436 -9.0533252 1.05004395 -8.23046875 0.66015625 C-7.15381958 0.14400757 -7.15381958 0.14400757 -6.05541992 -0.38256836 C-3.64279943 -1.10730018 -2.34891793 -0.81711549 0 0 Z " fill="#DE6C7A" transform="translate(136,134)"/>
<path d="M0 0 C0.33 0 0.66 0 1 0 C1.02505615 0.61818604 1.0501123 1.23637207 1.07592773 1.87329102 C1.56929409 13.92776381 2.10661348 25.9677943 3 38 C3.66 38 4.32 38 5 38 C5 40.31 5 42.62 5 45 C5.66 45 6.32 45 7 45 C7.25523437 46.01707031 7.25523437 46.01707031 7.515625 47.0546875 C10.39503369 58.11284214 14.06536661 69.68079993 21.875 78.3125 C22.926875 79.6428125 22.926875 79.6428125 24 81 C23.6328125 83.16796875 23.6328125 83.16796875 23 85 C3.09238494 60.09947827 -0.47494153 30.77986471 0 0 Z " fill="#FE5014" transform="translate(204,237)"/>
<path d="M0 0 C0.33 0 0.66 0 1 0 C1.02505615 1.24386475 1.0501123 2.48772949 1.07592773 3.76928711 C1.17144891 8.46792638 1.27129112 13.16646631 1.37231445 17.86499023 C1.41512525 19.88286993 1.456827 21.90077352 1.49731445 23.91870117 C1.74661732 36.30074364 2.15451249 48.6434335 3 61 C1.09093414 58.13640121 0.56278923 56.711073 -0.0625 53.4375 C-0.21847656 52.65246094 -0.37445313 51.86742187 -0.53515625 51.05859375 C-1.76297428 42.97975749 -2.1930212 34.97904904 -2.1875 26.8125 C-2.18814453 25.81597412 -2.18878906 24.81944824 -2.18945312 23.79272461 C-2.13215138 15.71903925 -1.40653268 7.94942128 0 0 Z " fill="#D94D5F" transform="translate(54,223)"/>
<path d="M0 0 C8.21171675 14.96866745 4.067309 42.93356612 0 59 C-0.93092867 62.02566484 -1.93698674 65.01834562 -3 68 C-4.23825459 64.28523623 -3.70587257 61.81171187 -3 58 C-2.505 57.505 -2.505 57.505 -2 57 C0.48644983 44.78391415 0.23716331 32.4650114 0.125 20.0625 C0.11494154 18.1074265 0.1058208 16.15234795 0.09765625 14.19726562 C0.07588963 9.46471603 0.04152082 4.73241581 0 0 Z " fill="#F1CB86" transform="translate(445,223)"/>
<path d="M0 0 C1.93742341 -0.02703381 3.87495479 -0.04641125 5.8125 -0.0625 C6.89144531 -0.07410156 7.97039062 -0.08570313 9.08203125 -0.09765625 C12 0 12 0 15 1 C17.24952058 1.07786802 19.49968417 1.13765123 21.75 1.1875 C31.44724019 1.61912436 41.4353225 4.73051542 49 11 C47.02 11 45.04 11 43 11 C43 10.34 43 9.68 43 9 C42.195625 8.87625 41.39125 8.7525 40.5625 8.625 C28.5106383 6.5106383 28.5106383 6.5106383 27 5 C25.205625 5.0309375 25.205625 5.0309375 23.375 5.0625 C19.25455595 5.11345956 15.9625949 4.18877847 12 3 C8.01165246 2.25751518 4.00922949 1.61883017 0 1 C0 0.67 0 0.34 0 0 Z " fill="#D0112A" transform="translate(181,129)"/>
<path d="M0 0 C1.37504799 2.75009598 0.6294275 3.96944052 -0.25 6.875 C-0.50265625 7.73867187 -0.7553125 8.60234375 -1.015625 9.4921875 C-2.02755389 12.0701968 -3.31900608 13.82059818 -5 16 C-5.68473395 18.32809543 -6.34853151 20.66237777 -7 23 C-7.66891375 24.48766417 -8.35748325 25.96660175 -9.0625 27.4375 C-11.02434052 31.68207688 -11.66184804 35.3504105 -12 40 C-14.20992661 36.68511009 -14.20951785 35.43774712 -13.59375 31.6171875 C-10.94072476 19.9229315 -6.28139455 10.11569495 0 0 Z " fill="#E37A86" transform="translate(69,186)"/>
<path d="M0 0 C2.31851313 2.31851313 2.94679881 4.13488782 4.125 7.1875 C10.3539548 22.36944232 18.33015164 35.35030681 30 47 C30.33 47.66 30.66 48.32 31 49 C26.35464466 47.60721268 24.36525108 45.42343879 21.4375 41.625 C18.3164137 37.6054714 18.3164137 37.6054714 14.8515625 33.890625 C13.02017246 32.02059804 12.0310158 30.48244964 10.9375 28.125 C10.61136719 27.4340625 10.28523437 26.743125 9.94921875 26.03125 C9.47935547 25.02578125 9.47935547 25.02578125 9 24 C8.4225 22.88625 7.845 21.7725 7.25 20.625 C6 18 6 18 6 16 C5.34 16 4.68 16 4 16 C3.32320342 14.274773 2.65898 12.54461061 2 10.8125 C1.443125 9.36810547 1.443125 9.36810547 0.875 7.89453125 C0.02363228 5.07817642 -0.17072647 2.91835561 0 0 Z " fill="#E21109" transform="translate(209,288)"/>
<path d="M0 0 C0.66 0 1.32 0 2 0 C2 0.99 2 1.98 2 3 C2.66 3 3.32 3 4 3 C4.33 5.31 4.66 7.62 5 10 C5.99 10.33 6.98 10.66 8 11 C8.70381157 12.98723268 9.3711811 14.98777953 10 17 C10.66 17.33 11.32 17.66 12 18 C12 18.66 12 19.32 12 20 C12.66 20 13.32 20 14 20 C14.66 21.32 15.32 22.64 16 24 C16.66 22.68 17.32 21.36 18 20 C18.93423645 23.01031744 19.04449911 23.86650268 18 27 C18.87483915 29.16715557 18.87483915 29.16715557 20 31 C19.01 31 18.02 31 17 31 C11.58172367 24.66264721 7.38572097 17.19306298 3.4375 9.875 C2.91796753 8.91678345 2.91796753 8.91678345 2.38793945 7.93920898 C0.89399033 5.08698532 0 3.26762685 0 0 Z " fill="#DD6376" transform="translate(61,296)"/>
<path d="M0 0 C3.71783804 3.26242358 5.80408075 6.98818287 7.9375 11.375 C8.28232422 12.0760083 8.62714844 12.7770166 8.98242188 13.49926758 C17.46833392 31.11150046 17.46833392 31.11150046 17 39 C14.1147148 36.55038464 13.13984008 34.17847474 11.9375 30.625 C10.53129871 26.51960416 10.53129871 26.51960416 8.94921875 22.48046875 C7.95711368 19.88793081 7.38387858 17.41363525 6.875 14.6875 C6.70742188 13.80449219 6.53984375 12.92148438 6.3671875 12.01171875 C6.24601562 11.34785156 6.12484375 10.68398437 6 10 C5.34 10 4.68 10 4 10 C1.1605948 6.32547562 0 4.73113419 0 0 Z " fill="#EFC77F" transform="translate(428,183)"/>
<path d="M0 0 C3.94139078 1.66751148 6.7892812 4.22710649 10 7 C8.67786355 11.21790269 7.22699886 12.97102507 3.5 15.3125 C2.7059375 15.82425781 1.911875 16.33601563 1.09375 16.86328125 C-1 18 -1 18 -3 18 C-3 17.01 -3 16.02 -3 15 C-2.34 15 -1.68 15 -1 15 C-0.71125 13.948125 -0.4225 12.89625 -0.125 11.8125 C0.77225193 8.77181289 1.76423419 5.91287656 3 3 C2.01 2.67 1.02 2.34 0 2 C0 1.34 0 0.68 0 0 Z " fill="#E00D15" transform="translate(240,338)"/>
<path d="M0 0 C-0.99 1.485 -0.99 1.485 -2 3 C-2.66 3 -3.32 3 -4 3 C-4 3.66 -4 4.32 -4 5 C-6.04712784 6.77792461 -8.09242561 8.42930397 -10.25 10.0625 C-11.12978516 10.75182617 -11.12978516 10.75182617 -12.02734375 11.45507812 C-14.98833837 13.72073806 -17.35227071 15.2663923 -21 16 C-21.33 15.34 -21.66 14.68 -22 14 C-21.01 14 -20.02 14 -19 14 C-19 13.34 -19 12.68 -19 12 C-18.01 12 -17.02 12 -16 12 C-15.34 10.68 -14.68 9.36 -14 8 C-12.68 8 -11.36 8 -10 8 C-10.33 6.02 -10.66 4.04 -11 2 C-6.97107804 -0.96244261 -4.82799816 -1.2350693 0 0 Z " fill="#F3A230" transform="translate(411,338)"/>
<path d="M0 0 C0.33 0 0.66 0 1 0 C0.43223958 15.8972917 -8.48134185 31.97146401 -17 45 C-17.66796875 43.2578125 -17.66796875 43.2578125 -18 41 C-16.92578125 38.9921875 -16.92578125 38.9921875 -15.3125 36.875 C-12.38760454 32.78286087 -10.54512198 28.79093398 -8.859375 24.06640625 C-8 22 -8 22 -6 20 C-5.28547802 18.22480092 -5.28547802 18.22480092 -4.74609375 16.19140625 C-4.53146484 15.44439453 -4.31683594 14.69738281 -4.09570312 13.92773438 C-3.87849609 13.14720703 -3.66128906 12.36667969 -3.4375 11.5625 C-2.99901377 10.02204547 -2.5602236 8.48167742 -2.12109375 6.94140625 C-1.83383423 5.91575562 -1.83383423 5.91575562 -1.54077148 4.86938477 C-1.06768839 3.23399096 -0.53836052 1.61508157 0 0 Z " fill="#F16902" transform="translate(292,275)"/>
<path d="M0 0 C0.66 0.33 1.32 0.66 2 1 C1.525625 1.4125 1.05125 1.825 0.5625 2.25 C-1.13435893 3.86553629 -1.13435893 3.86553629 -1.4375 5.9375 C-2.20897317 8.76623496 -3.89261104 10.02432285 -6 12 C-6.33 12.66 -6.66 13.32 -7 14 C-6.34 14.33 -5.68 14.66 -5 15 C-5.639375 15.103125 -6.27875 15.20625 -6.9375 15.3125 C-7.618125 15.539375 -8.29875 15.76625 -9 16 C-9.33 16.99 -9.66 17.98 -10 19 C-12.0625 19.6875 -12.0625 19.6875 -14 20 C-14 20.66 -14 21.32 -14 22 C-14.66 22 -15.32 22 -16 22 C-16 22.99 -16 23.98 -16 25 C-16.66 25 -17.32 25 -18 25 C-17.34 23.02 -16.68 21.04 -16 19 C-15.34 19 -14.68 19 -14 19 C-13.69449219 17.98873047 -13.69449219 17.98873047 -13.3828125 16.95703125 C-11.50473495 12.94091627 -8.80221957 9.98486682 -5.875 6.6875 C-5.31167969 6.04232422 -4.74835938 5.39714844 -4.16796875 4.73242188 C-2.78458492 3.14973699 -1.39308955 1.57414859 0 0 Z " fill="#E27785" transform="translate(88,161)"/>
<path d="M0 0 C3.62369777 1.35076906 6.82770556 2.98330615 10.125 5 C10.97320312 5.515625 11.82140625 6.03125 12.6953125 6.5625 C14.4830896 7.67758809 16.24684645 8.83123097 18 10 C18 10.66 18 11.32 18 12 C15.525 11.505 15.525 11.505 13 11 C13 10.34 13 9.68 13 9 C11.35 9.33 9.7 9.66 8 10 C8 10.66 8 11.32 8 12 C6.68 12 5.36 12 4 12 C4.495 11.1028125 4.495 11.1028125 5 10.1875 C6.20787988 7.94613529 6.20787988 7.94613529 6 5 C4.35 4.67 2.7 4.34 1 4 C0.67 2.68 0.34 1.36 0 0 Z " fill="#DA2439" transform="translate(230,140)"/>
<path d="M0 0 C2.64 0 5.28 0 8 0 C8.33 1.32 8.66 2.64 9 4 C11.31 4.33 13.62 4.66 16 5 C16 5.66 16 6.32 16 7 C16.94875 7.0825 17.8975 7.165 18.875 7.25 C19.90625 7.4975 20.9375 7.745 22 8 C23.1953125 10.046875 23.1953125 10.046875 24 12 C15.02781375 10.01536894 7.76349472 5.70955516 0 1 C0 0.67 0 0.34 0 0 Z " fill="#DF6371" transform="translate(109,354)"/>
<path d="M0 0 C-10.89417906 5.32701341 -21.78771837 9.44865546 -34 10 C-30.77208445 7.8480563 -29.71599191 7.79913557 -26 8 C-25.67 7.01 -25.34 6.02 -25 5 C-20.05 4.34 -15.1 3.68 -10 3 C-10 2.34 -10 1.68 -10 1 C-8.71073008 0.63720544 -7.41846728 0.28503302 -6.125 -0.0625 C-5.04605469 -0.35833984 -5.04605469 -0.35833984 -3.9453125 -0.66015625 C-2 -1 -2 -1 0 0 Z " fill="#F1CE8C" transform="translate(378,362)"/>
<path d="M0 0 C-0.66 0 -1.32 0 -2 0 C-2.33 0.99 -2.66 1.98 -3 3 C-1.68 3.66 -0.36 4.32 1 5 C1 5.33 1 5.66 1 6 C-1.97 6.66 -4.94 7.32 -8 8 C-8 7.34 -8 6.68 -8 6 C-8.99 5.67 -9.98 5.34 -11 5 C-11 5.66 -11 6.32 -11 7 C-12.32 6.67 -13.64 6.34 -15 6 C-14.34 6 -13.68 6 -13 6 C-13 5.01 -13 4.02 -13 3 C-11.5903653 2.29819469 -10.17192359 1.61406042 -8.75 0.9375 C-7.96109375 0.55464844 -7.1721875 0.17179688 -6.359375 -0.22265625 C-3.74006478 -1.08564091 -2.55144824 -0.93045933 0 0 Z " fill="#DC0A1F" transform="translate(136,134)"/>
<path d="M0 0 C1.41750563 0.11509661 2.83401169 0.24253658 4.25 0.375 C5.03890625 0.44460938 5.8278125 0.51421875 6.640625 0.5859375 C9.085877 1.01507113 10.84836903 1.78600638 13 3 C13 3.66 13 4.32 13 5 C15.31 5.33 17.62 5.66 20 6 C20 6.66 20 7.32 20 8 C20.99 8 21.98 8 23 8 C23 8.66 23 9.32 23 10 C18.21467059 9.39908574 14.23540503 8.03068898 9.8125 6.125 C8.60207031 5.61195313 7.39164062 5.09890625 6.14453125 4.5703125 C3.47218823 3.23580083 1.8680084 2.26878112 0 0 Z " fill="#EEB65F" transform="translate(265,357)"/>
<path d="M0 0 C4.63399233 0.57264164 8.17931967 2.59085854 12.125 4.9375 C12.74503906 5.29779297 13.36507813 5.65808594 14.00390625 6.02929688 C16.72320465 7.61701626 19.37939238 9.25292825 22 11 C21.67 11.66 21.34 12.32 21 13 C19.55903414 12.57405412 18.12231288 12.13373367 16.6875 11.6875 C15.88699219 11.44386719 15.08648437 11.20023438 14.26171875 10.94921875 C11.87905384 9.94924021 10.74138403 8.86287594 9 7 C6.89667109 6.28552357 6.89667109 6.28552357 5 6 C5 5.34 5 4.68 5 4 C4.360625 3.896875 3.72125 3.79375 3.0625 3.6875 C2.381875 3.460625 1.70125 3.23375 1 3 C0.67 2.01 0.34 1.02 0 0 Z " fill="#EFC37C" transform="translate(374,137)"/>
<path d="M0 0 C-9.27908117 4.54725316 -16.71530278 6.20989178 -27 6 C-27 5.67 -27 5.34 -27 5 C-24.69 5 -22.38 5 -20 5 C-20 4.34 -20 3.68 -20 3 C-16.57190333 1.00378646 -13.34067705 0.4030831 -9.4375 -0.1875 C-8.30183594 -0.36667969 -7.16617188 -0.54585938 -5.99609375 -0.73046875 C-3 -1 -3 -1 0 0 Z " fill="#D0162B" transform="translate(228,362)"/>
<path d="M0 0 C0.33 0.66 0.66 1.32 1 2 C2.32 1.34 3.64 0.68 5 0 C3.47326439 3.38230658 1.49747022 6.10259949 -0.8125 9 C-1.47894531 9.845625 -2.14539063 10.69125 -2.83203125 11.5625 C-5.03709555 14.04170743 -7.35504303 16.00589632 -10 18 C-10 16.35 -10 14.7 -10 13 C-8.35 12.67 -6.7 12.34 -5 12 C-5 11.01 -5 10.02 -5 9 C-4.34 9 -3.68 9 -3 9 C-2.01 6.03 -1.02 3.06 0 0 Z " fill="#EBBB6A" transform="translate(421,320)"/>
<path d="M0 0 C2.97 0.495 2.97 0.495 6 1 C6 2.32 6 3.64 6 5 C6.99 5 7.98 5 9 5 C9.33 6.65 9.66 8.3 10 10 C11.32 10 12.64 10 14 10 C14.33 11.65 14.66 13.3 15 15 C10.96918 13.387672 8.24055863 10.53765404 5.25 7.5 C4.74339844 7.00113281 4.23679687 6.50226563 3.71484375 5.98828125 C0 2.25341139 0 2.25341139 0 0 Z " fill="#D53D4F" transform="translate(80,328)"/>
<path d="M0 0 C0.99 0 1.98 0 3 0 C3 0.66 3 1.32 3 2 C2.34 2 1.68 2 1 2 C0.64035156 2.83724609 0.64035156 2.83724609 0.2734375 3.69140625 C-1.27704087 6.50224281 -3.19281874 8.5849491 -5.375 10.9375 C-7.73185964 13.48748024 -9.99411832 15.9922926 -12.1015625 18.75390625 C-14 21 -14 21 -17 22 C-17 21.34 -17 20.68 -17 20 C-16.34 20 -15.68 20 -15 20 C-14.72744385 19.40977051 -14.4548877 18.81954102 -14.17407227 18.21142578 C-13.0299285 16.05637188 -11.82057614 14.4441707 -10.21484375 12.6171875 C-9.68439453 12.00746094 -9.15394531 11.39773438 -8.60742188 10.76953125 C-8.05634766 10.14433594 -7.50527344 9.51914062 -6.9375 8.875 C-5.8406326 7.62398515 -4.74549606 6.37144995 -3.65234375 5.1171875 C-3.16757568 4.56659668 -2.68280762 4.01600586 -2.18334961 3.44873047 C-0.90366815 1.99022263 -0.90366815 1.99022263 0 0 Z " fill="#F16801" transform="translate(271,320)"/>
<path d="M0 0 C6.87223713 6.69138878 6.87223713 6.69138878 8 11.9375 C8.68038233 14.86962385 9.47052565 17.37804397 11 20 C6.39529412 18.54588235 6.39529412 18.54588235 4.6875 16.1875 C4 14 4 14 4.0625 11.5 C3.98402031 8.36081241 2.89763029 7.42896678 1 5 C0.3125 2.25 0.3125 2.25 0 0 Z " fill="#F0A026" transform="translate(421,173)"/>
<path d="M0 0 C7.14502412 0.03086404 13.38427098 1.56650602 20.0625 3.9375 C20.81265381 4.20256348 21.56280762 4.46762695 22.33569336 4.74072266 C27.72427073 6.72427073 27.72427073 6.72427073 30 9 C28.54119891 8.85892253 27.08296449 8.71197585 25.625 8.5625 C24.81289063 8.48128906 24.00078125 8.40007812 23.1640625 8.31640625 C21 8 21 8 19 7 C19 6.34 19 5.68 19 5 C18.071875 5.04125 17.14375 5.0825 16.1875 5.125 C13 5 13 5 10 3 C8.28555111 2.56261304 6.55332216 2.19151312 4.8125 1.875 C3.91144531 1.70742187 3.01039063 1.53984375 2.08203125 1.3671875 C1.39496094 1.24601563 0.70789063 1.12484375 0 1 C0 0.67 0 0.34 0 0 Z " fill="#F3D393" transform="translate(344,128)"/>
<path d="M0 0 C0.66 0.33 1.32 0.66 2 1 C-3.3525216 6.02714035 -8.02407794 8.67469265 -15 11 C-15.33 11.99 -15.66 12.98 -16 14 C-17.32 13.67 -18.64 13.34 -20 13 C-18.59857514 10.19715028 -16.87963383 10.14368436 -14 9 C-12.2825139 7.87794436 -10.59487061 6.70908644 -8.9375 5.5 C-3.01591981 1.19339623 -3.01591981 1.19339623 0 0 Z " fill="#EFC67A" transform="translate(268,140)"/>
<path d="M0 0 C4.48277753 0.60944105 8.40801079 1.74548426 12.625 3.375 C13.73101562 3.79523438 14.83703125 4.21546875 15.9765625 4.6484375 C18.68162629 5.8576779 20.73658378 7.11197964 23 9 C21.02 9 19.04 9 17 9 C17 8.34 17 7.68 17 7 C16.0925 6.87625 15.185 6.7525 14.25 6.625 C11.30185573 6.05804918 9.58477545 5.40987752 7 4 C4.67792082 2.97244219 2.33870987 1.98945418 0 1 C0 0.67 0 0.34 0 0 Z " fill="#E58591" transform="translate(207,131)"/>
<path d="M0 0 C-2.01037612 6.03112837 -5.43652047 9.07185288 -11 12 C-11.66 12 -12.32 12 -13 12 C-13 12.66 -13 13.32 -13 14 C-13.66 13.67 -14.32 13.34 -15 13 C-11.66666667 9.66666667 -8.33333333 6.33333333 -5 3 C-4.443125 2.401875 -3.88625 1.80375 -3.3125 1.1875 C-2 0 -2 0 0 0 Z " fill="#FC4D17" transform="translate(249,156)"/>
<path d="M0 0 C5.63370702 3.67915561 9.75139368 7.7957801 14 13 C13.67 13.66 13.34 14.32 13 15 C12.21625 14.525625 11.4325 14.05125 10.625 13.5625 C9.11051322 12.66101977 7.5764103 11.78820515 6 11 C5.375 8.4375 5.375 8.4375 5 6 C3.68 6 2.36 6 1 6 C0.67 4.02 0.34 2.04 0 0 Z " fill="#EEC276" transform="translate(407,158)"/>
<path d="M0 0 C1.1640625 1.65625 1.1640625 1.65625 2 4 C1.0234375 6.65625 1.0234375 6.65625 -0.625 9.5 C-1.41777344 10.90765625 -1.41777344 10.90765625 -2.2265625 12.34375 C-3.93950463 14.90939019 -5.74219659 16.90980645 -8 19 C-7.39009109 15.44219804 -6.4216319 12.3171411 -5 9 C-4.01 9 -3.02 9 -2 9 C-2 7.35 -2 5.7 -2 4 C-1.34 4 -0.68 4 0 4 C0 2.68 0 1.36 0 0 Z " fill="#EEC275" transform="translate(434,301)"/>
<path d="M0 0 C5.50588235 0.48941176 5.50588235 0.48941176 7.875 2.9375 C9 5 9 5 9 7 C9.639375 7.103125 10.27875 7.20625 10.9375 7.3125 C11.618125 7.539375 12.29875 7.76625 13 8 C13.33 8.99 13.66 9.98 14 11 C10.21908383 9.65686815 7.34348084 7.97035316 4.1875 5.5 C3.39730469 4.8915625 2.60710937 4.283125 1.79296875 3.65625 C1.20128906 3.1096875 0.60960938 2.563125 0 2 C0 1.34 0 0.68 0 0 Z " fill="#DD5D6D" transform="translate(95,343)"/>
<path d="M0 0 C0.99 1.32 1.98 2.64 3 4 C3.66 2.68 4.32 1.36 5 0 C5.93423645 3.01031744 6.04449911 3.86650268 5 7 C5.87483915 9.16715557 5.87483915 9.16715557 7 11 C6.01 11 5.02 11 4 11 C0.96720886 7.87800912 -0.63555832 5.37330013 -1 1 C-0.67 0.67 -0.34 0.34 0 0 Z " fill="#D80E25" transform="translate(74,316)"/>
<path d="M0 0 C0.99 0.66 1.98 1.32 3 2 C2.0409375 2.1546875 2.0409375 2.1546875 1.0625 2.3125 C0.381875 2.539375 -0.29875 2.76625 -1 3 C-1.33 3.99 -1.66 4.98 -2 6 C-4.0625 6.6875 -4.0625 6.6875 -6 7 C-6 7.66 -6 8.32 -6 9 C-6.66 9 -7.32 9 -8 9 C-8 9.99 -8 10.98 -8 12 C-8.66 12 -9.32 12 -10 12 C-9.34 10.02 -8.68 8.04 -8 6 C-7.34 6 -6.68 6 -6 6 C-5.67 5.01 -5.34 4.02 -5 3 C-2.4375 1.3125 -2.4375 1.3125 0 0 Z " fill="#DE495B" transform="translate(80,174)"/>
<path d="M0 0 C1.48285242 0.95262034 2.96118201 1.91228405 4.4375 2.875 C5.67306641 3.67550781 5.67306641 3.67550781 6.93359375 4.4921875 C9 6 9 6 10 8 C6.72724974 8 4.153368 7.70074844 1 7 C1 6.01 1 5.02 1 4 C0.34 3.34 -0.32 2.68 -1 2 C-0.67 1.34 -0.34 0.68 0 0 Z " fill="#F2B556" transform="translate(397,150)"/>
<path d="M0 0 C1.65 0 3.3 0 5 0 C1.97704729 3.25548753 -1.20462309 5.68977058 -5 8 C-5.66 8 -6.32 8 -7 8 C-7 7.01 -7 6.02 -7 5 C-6.34 5 -5.68 5 -5 5 C-4.67 4.01 -4.34 3.02 -4 2 C-3.01 2.33 -2.02 2.66 -1 3 C-0.67 2.01 -0.34 1.02 0 0 Z " fill="#DD5567" transform="translate(244,348)"/>
<path d="M0 0 C4.29 0 8.58 0 13 0 C13 0.99 13 1.98 13 3 C9.57056481 4.18771723 7.62215325 3.80226223 4.25 2.5625 C3.45078125 2.27503906 2.6515625 1.98757813 1.828125 1.69140625 C1.22484375 1.46324219 0.6215625 1.23507812 0 1 C0 0.67 0 0.34 0 0 Z " fill="#F1BD71" transform="translate(288,367)"/>
<path d="M0 0 C0.5625 1.9375 0.5625 1.9375 1 4 C0.67 4.33 0.34 4.66 0 5 C-0.5381758 8.32402697 -0.96620477 11.65724826 -1.40234375 14.99609375 C-2 18 -2 18 -4 20 C-4.29973431 13.10611082 -3.89839291 5.84758937 0 0 Z " fill="#EBAF49" transform="translate(443,276)"/>
<path d="M0 0 C0.33 0.99 0.66 1.98 1 3 C-0.75 5.375 -0.75 5.375 -3 8 C-4.0268343 9.6502694 -5.03567924 11.31243867 -6 13 C-6.99 12.67 -7.98 12.34 -9 12 C-7.68858144 10.18671738 -6.37583526 8.37439486 -5.0625 6.5625 C-3.96615234 5.04849609 -3.96615234 5.04849609 -2.84765625 3.50390625 C-1 1 -1 1 0 0 Z " fill="#FC4E14" transform="translate(233,170)"/>
<path d="M0 0 C-1.62170379 1.00533667 -3.24747237 2.00411907 -4.875 3 C-6.23238281 3.8353125 -6.23238281 3.8353125 -7.6171875 4.6875 C-10 6 -10 6 -12 6 C-12 4.68 -12 3.36 -12 2 C-10.02 2 -8.04 2 -6 2 C-6 1.34 -6 0.68 -6 0 C-3 -1 -3 -1 0 0 Z " fill="#EDB760" transform="translate(390,355)"/>
<path d="M0 0 C1.65 0 3.3 0 5 0 C1.97731777 3.25519625 -1.14096436 5.78310719 -5 8 C-5.99 7.67 -6.98 7.34 -8 7 C-7.01 6.67 -6.02 6.34 -5 6 C-5 5.34 -5 4.68 -5 4 C-4.01 4 -3.02 4 -2 4 C-1.34 2.68 -0.68 1.36 0 0 Z " fill="#EAB965" transform="translate(397,346)"/>
<path d="M0 0 C6.86258737 3.05003883 10.77461711 8.01767096 15 14 C11.62985544 12.50728757 9.12782162 10.56479174 6.375 8.125 C5.59898437 7.44695312 4.82296875 6.76890625 4.0234375 6.0703125 C2.10475403 4.10718076 1.04805247 2.51307205 0 0 Z " fill="#FD5216" transform="translate(234,330)"/>
<path d="M0 0 C1.485 0.99 1.485 0.99 3 2 C3.38384509 4.93597539 3.603843 7.68027373 3.6875 10.625 C3.73874023 11.82769531 3.73874023 11.82769531 3.79101562 13.0546875 C3.87356878 15.03596318 3.93845916 17.01796037 4 19 C0.33458746 13.5018812 -0.34357529 6.52793043 0 0 Z " fill="#E36D7C" transform="translate(53,265)"/>
<path d="M0 0 C0.33 0 0.66 0 1 0 C1.1080023 2.10304477 1.18558987 4.20766909 1.25 6.3125 C1.29640625 7.48425781 1.3428125 8.65601563 1.390625 9.86328125 C1.26171875 10.89839844 1.1328125 11.93351562 1 13 C-0.32 13.99 -1.64 14.98 -3 16 C-2.01 10.72 -1.02 5.44 0 0 Z " fill="#FD911B" transform="translate(295,266)"/>
<path d="M0 0 C1 3 1 3 -0.3125 5.6875 C-0.869375 6.450625 -1.42625 7.21375 -2 8 C-2.66 8 -3.32 8 -4 8 C-4.144375 8.78375 -4.28875 9.5675 -4.4375 10.375 C-5 13 -5 13 -6 15 C-6.66 15 -7.32 15 -8 15 C-6.51194289 9.19657726 -3.40902445 4.82409121 0 0 Z " fill="#FD4A15" transform="translate(223,184)"/>
<path d="M0 0 C0.66 0 1.32 0 2 0 C2 0.66 2 1.32 2 2 C4.31 2.66 6.62 3.32 9 4 C8.67 4.99 8.34 5.98 8 7 C7.01 7.33 6.02 7.66 5 8 C5 7.01 5 6.02 5 5 C3.68 5.33 2.36 5.66 1 6 C0.67 4.02 0.34 2.04 0 0 Z " fill="#DE0D18" transform="translate(241,149)"/>
<path d="M0 0 C7.03482474 -0.23668569 13.1834265 0.2120463 20 2 C20 2.33 20 2.66 20 3 C13.04958914 3.26618595 6.76485645 2.6120509 0 1 C0 0.67 0 0.34 0 0 Z " fill="#E1707F" transform="translate(186,128)"/>
<path d="M0 0 C3.63 0.33 7.26 0.66 11 1 C11 1.66 11 2.32 11 3 C11.99 3 12.98 3 14 3 C14 3.66 14 4.32 14 5 C8.94744036 4.36843005 4.70406799 2.86540627 0 1 C0 0.67 0 0.34 0 0 Z " fill="#EFBF75" transform="translate(274,362)"/>
<path d="M0 0 C1.37504799 2.75009598 0.6294275 3.96944052 -0.25 6.875 C-0.62898438 8.17050781 -0.62898438 8.17050781 -1.015625 9.4921875 C-2.02317157 12.05903233 -3.24900878 13.8850387 -5 16 C-5.66 15.67 -6.32 15.34 -7 15 C-6.401875 13.824375 -5.80375 12.64875 -5.1875 11.4375 C-3.30526646 7.67973126 -1.61620564 3.87889353 0 0 Z " fill="#D23E52" transform="translate(69,186)"/>
<path d="M0 0 C2.97 0.495 2.97 0.495 6 1 C4.48065294 4.03869411 2.01995228 4.64410306 -1 6 C-1.66 6 -2.32 6 -3 6 C-3 4.68 -3 3.36 -3 2 C-2.01 2 -1.02 2 0 2 C0 1.34 0 0.68 0 0 Z " fill="#E04C61" transform="translate(231,355)"/>
<path d="M0 0 C3.98671063 1.36687222 6.88494633 3.15195093 10 6 C10 6.66 10 7.32 10 8 C5.89041233 6.54955729 2.56741255 4.48889248 -1 2 C-0.67 1.34 -0.34 0.68 0 0 Z " fill="#F2C47B" transform="translate(250,346)"/>
<path d="M0 0 C0.33 1.32 0.66 2.64 1 4 C0.34 4 -0.32 4 -1 4 C-1.3403125 4.86625 -1.3403125 4.86625 -1.6875 5.75 C-3.33038023 8.5663661 -5.39533227 10.08077114 -8 12 C-8.66 11.67 -9.32 11.34 -10 11 C-9.52949219 10.54109375 -9.05898438 10.0821875 -8.57421875 9.609375 C-3.96631602 5.08450705 -3.96631602 5.08450705 0 0 Z " fill="#FD9019" transform="translate(270,325)"/>
<path d="M0 0 C4.10839064 1.45002023 7.50344613 3.3979134 11 6 C11 6.66 11 7.32 11 8 C9.35 7.67 7.7 7.34 6 7 C6 6.34 6 5.68 6 5 C5.195625 4.731875 4.39125 4.46375 3.5625 4.1875 C2.716875 3.795625 1.87125 3.40375 1 3 C0.67 2.01 0.34 1.02 0 0 Z " fill="#DB6A71" transform="translate(237,144)"/>
<path d="M0 0 C-0.66 0 -1.32 0 -2 0 C-2.33 0.99 -2.66 1.98 -3 3 C-6.3 3.33 -9.6 3.66 -13 4 C-5.1322314 -1.90082645 -5.1322314 -1.90082645 0 0 Z " fill="#E88D9A" transform="translate(136,134)"/>
<path d="M0 0 C0 0.66 0 1.32 0 2 C-4.92737019 3.97094808 -8.78020872 4.1799928 -14 4 C-11.8553857 1.8553857 -10.98260002 1.55435397 -8.125 0.875 C-7.44695312 0.70742187 -6.76890625 0.53984375 -6.0703125 0.3671875 C-4 0 -4 0 0 0 Z " fill="#E58892" transform="translate(150,129)"/>
<path d="M0 0 C2.64 0 5.28 0 8 0 C8.33 1.32 8.66 2.64 9 4 C3.46153846 3.38461538 3.46153846 3.38461538 1.125 1.4375 C0.75375 0.963125 0.3825 0.48875 0 0 Z " fill="#DA495C" transform="translate(109,354)"/>
<path d="M0 0 C0.33 0 0.66 0 1 0 C1 1.65 1 3.3 1 5 C1.66 5 2.32 5 3 5 C3 7.64 3 10.28 3 13 C0.46800028 10.46800028 -0.11946497 8.45440665 -1 5 C-0.625 2.125 -0.625 2.125 0 0 Z " fill="#DA6270" transform="translate(58,283)"/>
<path d="M0 0 C0.556875 0.28875 1.11375 0.5775 1.6875 0.875 C4.00534192 2.08822678 4.00534192 2.08822678 6.6875 2.75 C7.450625 3.1625 8.21375 3.575 9 4 C9.8125 7.125 9.8125 7.125 10 10 C6.40078299 7.22346117 3.12544799 4.30404501 0 1 C0 0.67 0 0.34 0 0 Z " fill="#FD921E" transform="translate(251,154)"/>
<path d="M0 0 C3.3 0 6.6 0 10 0 C10 0.33 10 0.66 10 1 C4.16200408 2.69832609 -0.93107371 3.25287193 -7 3 C-7 2.67 -7 2.34 -7 2 C-4.69 2 -2.38 2 0 2 C0 1.34 0 0.68 0 0 Z " fill="#E8AA4B" transform="translate(342,369)"/>
<path d="M0 0 C-1.76505435 0.86604534 -3.53728074 1.71748642 -5.3125 2.5625 C-6.79169922 3.27599609 -6.79169922 3.27599609 -8.30078125 4.00390625 C-11 5 -11 5 -14 4 C-13.175 3.525625 -12.35 3.05125 -11.5 2.5625 C-10.2625 1.7890625 -10.2625 1.7890625 -9 1 C-9 0.67 -9 0.34 -9 0 C-3.375 -1.125 -3.375 -1.125 0 0 Z " fill="#EB95A5" transform="translate(228,362)"/>
<path d="M0 0 C0.33 0.66 0.66 1.32 1 2 C2.32 1.34 3.64 0.68 5 0 C3.55746343 3.36591866 1.66735273 5.51047079 -1 8 C-1.04241723 5.66705225 -1.04092937 3.33297433 -1 1 C-0.67 0.67 -0.34 0.34 0 0 Z " fill="#F1BA5E" transform="translate(421,320)"/>
<path d="M0 0 C3.39417765 3.12621626 5.6062718 5.56541027 7 10 C4.625 8.9375 4.625 8.9375 2 7 C0.6875 3.3125 0.6875 3.3125 0 0 Z " fill="#EFC87D" transform="translate(421,173)"/>
<path d="M0 0 C2.97 0.495 2.97 0.495 6 1 C6 2.98 6 4.96 6 7 C3.95880212 5.38405168 1.95927063 3.7143618 0 2 C0 1.34 0 0.68 0 0 Z " fill="#E15B6C" transform="translate(80,328)"/>
<path d="M0 0 C0.33 1.32 0.66 2.64 1 4 C-3.75 8 -3.75 8 -6 8 C-5.34 6.68 -4.68 5.36 -4 4 C-3.34 4 -2.68 4 -2 4 C-1.34 2.68 -0.68 1.36 0 0 Z " fill="#FD9418" transform="translate(259,337)"/>
<path d="M0 0 C0.66 0 1.32 0 2 0 C0.68775452 3.93673644 -0.91910327 6.22719294 -4 9 C-4.66 8.67 -5.32 8.34 -6 8 C-5.566875 7.608125 -5.13375 7.21625 -4.6875 6.8125 C-2.85439739 4.97761098 -2.85439739 4.97761098 -1.4375 2.3125 C-0.7259375 1.1678125 -0.7259375 1.1678125 0 0 Z " fill="#FD580F" transform="translate(247,156)"/>
<path d="M0 0 C2.97 0.495 2.97 0.495 6 1 C5.01 2.485 5.01 2.485 4 4 C3.34 4 2.68 4 2 4 C2 4.66 2 5.32 2 6 C1.34 5.67 0.68 5.34 0 5 C0 3.35 0 1.7 0 0 Z " fill="#F0B74E" transform="translate(405,337)"/>
<path d="M0 0 C0.99 0 1.98 0 3 0 C3 0.66 3 1.32 3 2 C3.66 2 4.32 2 5 2 C5.66 4.31 6.32 6.62 7 9 C4.03595495 6.19195732 1.55500981 3.81684226 0 0 Z " fill="#FD911A" transform="translate(267,170)"/>
<path d="M0 0 C1.18771723 3.42943519 0.80226223 5.37784675 -0.4375 8.75 C-0.86869141 9.94882812 -0.86869141 9.94882812 -1.30859375 11.171875 C-1.65083984 12.07679688 -1.65083984 12.07679688 -2 13 C-3.24964981 9.25105057 -2.75598428 6.84864723 -2 3 C-1.34 2.01 -0.68 1.02 0 0 Z " fill="#F5DEA2" transform="translate(444,278)"/>
<path d="M0 0 C0.66 0.33 1.32 0.66 2 1 C0.625 2.5 0.625 2.5 -1 4 C-1.66 4 -2.32 4 -3 4 C-3.33 4.99 -3.66 5.98 -4 7 C-5.32 6.67 -6.64 6.34 -8 6 C-6.60624928 3.21249856 -4.83755139 3.10733713 -2 2 C-1.34 1.34 -0.68 0.68 0 0 Z " fill="#F5C994" transform="translate(256,147)"/>
<path d="M0 0 C4.67692308 1.47692308 4.67692308 1.47692308 6.3125 4.125 C6.539375 4.74375 6.76625 5.3625 7 6 C6.01 6 5.02 6 4 6 C1.8125 3 1.8125 3 0 0 Z " fill="#DB6373" transform="translate(74,321)"/>
<path d="M0 0 C0.33 0 0.66 0 1 0 C0.50769231 6.52307692 0.50769231 6.52307692 -2.0625 8.9375 C-2.701875 9.288125 -3.34125 9.63875 -4 10 C-2.66666667 6.66666667 -1.33333333 3.33333333 0 0 Z " fill="#FD901C" transform="translate(285,300)"/>
<path d="M0 0 C2.12046792 3.53411321 2.53199289 6.94393835 3 11 C1.5 10 1.5 10 0 8 C-0.27345479 5.28153765 -0.13491285 2.74322801 0 0 Z " fill="#F5DDA6" transform="translate(442,211)"/>
<path d="M0 0 C0.66 0.33 1.32 0.66 2 1 C1.2884375 1.61875 1.2884375 1.61875 0.5625 2.25 C-1.15276627 3.89078817 -1.15276627 3.89078817 -1.5 6.125 C-1.665 6.74375 -1.83 7.3625 -2 8 C-2.99 8.33 -3.98 8.66 -5 9 C-4.42647107 5.12867972 -2.51295648 2.91827204 0 0 Z " fill="#EB8B99" transform="translate(88,161)"/>
<path d="M0 0 C3.3 0 6.6 0 10 0 C10.33 0.66 10.66 1.32 11 2 C6.99799622 3.60080151 3.95443764 2.29279692 0 1 C0 0.67 0 0.34 0 0 Z " fill="#E20425" transform="translate(193,131)"/>
<path d="M0 0 C0 0.66 0 1.32 0 2 C-4.455 3.485 -4.455 3.485 -9 5 C-6.54789272 1.19923372 -6.54789272 1.19923372 -3.9375 0.25 C-2 0 -2 0 0 0 Z " fill="#EAA032" transform="translate(276,139)"/>
</svg>
