<?xml version="1.0" encoding="UTF-8"?>
<svg version="1.1" xmlns="http://www.w3.org/2000/svg" width="512" height="512">
<path d="M0 0 C0.83359844 -0.00367669 1.66719688 -0.00735338 2.52605587 -0.01114148 C5.33614807 -0.02220666 8.14620333 -0.02602714 10.95631409 -0.02983093 C12.96516539 -0.03609406 14.97401552 -0.04274073 16.98286438 -0.04974365 C23.60104052 -0.07082594 30.21921698 -0.0811583 36.8374176 -0.09111023 C39.11841913 -0.09515795 41.39942055 -0.09927487 43.68042183 -0.10346031 C54.40989536 -0.12253076 65.13936198 -0.13675098 75.86884922 -0.14507228 C88.22646117 -0.15481516 100.58389258 -0.18104944 112.941441 -0.22157317 C122.5051826 -0.25184964 132.06887285 -0.26655253 141.6326614 -0.26985329 C147.33703141 -0.27219308 153.04120899 -0.28101119 158.74552727 -0.30631447 C164.12753282 -0.32979861 169.50922213 -0.3337476 174.89126587 -0.32355309 C176.85223004 -0.32306231 178.81321084 -0.32924486 180.77412605 -0.34310913 C196.91045612 -0.4506806 212.96071195 1.09641139 227.84132385 7.83467102 C229.01247742 8.34949036 229.01247742 8.34949036 230.20729065 8.87471008 C257.67085859 21.32823582 278.49991458 44.0897722 289.3061676 72.1710968 C294.69639966 86.91046784 298.08459317 105.09880148 295.41163635 120.76435852 C294.83268451 124.76943636 294.49354199 128.13034517 295.02882385 132.14717102 C297.3878743 135.12608539 299.84925954 136.92241772 302.98194885 139.06123352 C319.20656713 150.1688568 329.80304749 172.73115855 333.94825745 191.51899719 C337.119844 208.88607961 336.34683556 228.03520656 332.02882385 245.14717102 C331.85721741 245.86872375 331.68561096 246.59027649 331.50880432 247.33369446 C328.82821174 258.49205036 325.0379096 268.83265046 320.02882385 279.14717102 C319.73137268 279.77188293 319.43392151 280.39659485 319.12745667 281.04023743 C301.67344122 317.29741653 268.67385033 344.35398145 231.02101135 357.58857727 C216.33402259 362.51474835 201.21407212 365.04301251 185.7280426 365.32295227 C184.4202887 365.34679993 183.11253479 365.37064758 181.76515198 365.3952179 C179.74494187 365.43011221 177.72532267 365.45961095 175.70484924 365.47309875 C162.17228762 365.58035598 150.91000961 367.12666446 141.05226135 376.92060852 C133.81856575 384.88046662 131.82915835 393.94399777 130.17530823 404.31343079 C130.01387833 405.28700531 129.85244843 406.26057983 129.68612671 407.26365662 C129.33919022 409.36157582 128.99558079 411.46004747 128.65499878 413.55900764 C128.11490505 416.88581465 127.56544562 420.2109569 127.01356506 423.53582764 C125.64541382 431.78973431 124.29243149 440.04611106 122.94050598 448.3026886 C121.79558948 455.29242943 120.6441575 462.28103331 119.48373413 469.26821709 C118.9438748 472.53531603 118.41363259 475.80388276 117.88368225 479.07260132 C117.5503905 481.08525054 117.21663408 483.09782289 116.88233948 485.11030579 C116.73887589 486.01182877 116.59541229 486.91335175 116.44760132 487.8421936 C115.28082668 494.76805926 113.95139606 502.0122498 108.65382385 507.02217102 C108.08921448 507.5764679 107.5246051 508.13076477 106.94288635 508.70185852 C102.52606667 512.03700808 98.41211918 512.40439695 92.97877502 512.43769836 C91.94356972 512.4477742 91.94356972 512.4477742 90.88745117 512.45805359 C88.61549086 512.47698501 86.34382679 512.48095545 84.0717926 512.48310852 C82.48384482 512.48954046 80.89589821 512.49626912 79.30795288 512.50328064 C75.98172765 512.51524171 72.65560618 512.51896274 69.32936096 512.51777649 C65.08253644 512.51757351 60.83638269 512.54485852 56.58971691 512.57932091 C53.30986521 512.6016414 50.03017353 512.60561244 46.75025368 512.60455704 C45.18546045 512.60690591 43.62066234 512.61568899 42.05594444 512.63122177 C26.86925628 512.7678498 26.86925628 512.7678498 20.02882385 508.14717102 C17.9702301 506.11201477 17.9702301 506.11201477 16.59132385 504.08467102 C16.11823792 503.41306946 15.64515198 502.7414679 15.1577301 502.04951477 C9.15785842 491.93900435 13.99514095 475.9003272 16.02882385 465.02217102 C16.46023807 462.66145699 16.88816976 460.30016801 17.3127594 457.93821716 C17.57521402 456.48382083 17.84206814 455.03020919 18.11402893 453.57756042 C18.7068189 450.34410185 19.02882385 447.45314034 19.02882385 444.14717102 C18.33659729 444.85293274 18.33659729 444.85293274 17.63038635 445.57295227 C16.65198792 446.50687805 16.65198792 446.50687805 15.65382385 447.45967102 C14.71409729 448.38199524 14.71409729 448.38199524 13.75538635 449.32295227 C5.03551825 455.15701875 -5.2574633 454.5916549 -15.34617615 454.54560852 C-16.92218663 454.54763435 -18.49819619 454.55055001 -20.07420349 454.55430603 C-23.3622183 454.55870546 -26.64998704 454.5523758 -29.93797302 454.5382843 C-34.12720839 454.52119369 -38.31586691 454.53104775 -42.50508118 454.54900169 C-45.75499219 454.55990437 -49.00476914 454.55636368 -52.25468445 454.54861832 C-53.79826427 454.54663417 -55.34185674 454.54901192 -56.88542175 454.55605698 C-68.31234704 454.59678093 -78.71827795 454.42656764 -87.27586365 446.07685852 C-93.24376515 439.28390151 -93.48082632 433.09287061 -93.11110997 424.21428251 C-92.64720432 417.36143827 -91.33040367 410.59207816 -90.15843201 403.83320618 C-89.85245465 402.01787198 -89.54749391 400.2023662 -89.24345493 398.38670635 C-88.41251604 393.44209419 -87.5674217 388.49999425 -86.71989059 383.55820298 C-85.810444 378.23994049 -84.91449433 372.91940318 -84.01695251 367.59912109 C-82.46943935 358.43692199 -80.91375016 349.27614291 -79.35224915 340.11631775 C-77.10449564 326.93080418 -74.86849898 313.74331978 -72.63604653 300.55520785 C-71.60387095 294.4577215 -70.57128386 288.36030486 -69.53857422 282.26290894 C-69.33273576 281.04756751 -69.12689731 279.83222608 -68.91482133 278.58005613 C-67.44412239 269.89818169 -65.97093271 261.21673196 -64.49667358 252.53546143 C-59.25952913 221.69287703 -54.05488036 190.84503716 -48.88638115 159.99087524 C-47.79713473 153.48852342 -46.70686013 146.9863443 -45.61633301 140.48420715 C-45.26125924 138.36698302 -44.90618689 136.24975864 -44.55111599 134.13253403 C-44.02680655 131.00619988 -43.50249496 127.8798661 -42.97816861 124.75353479 C-41.11434415 113.63989337 -39.25207108 102.52599662 -37.39399719 91.41139221 C-35.96809443 82.88223631 -34.53828494 74.35374618 -33.10355031 65.82607132 C-32.3772693 61.50844989 -31.65283677 57.19054025 -30.9335022 52.8717556 C-30.27759998 48.93385398 -29.61652297 44.99685696 -28.95139325 41.06050372 C-28.71318905 39.64525972 -28.47685451 38.22969938 -28.24265754 36.81378675 C-23.81179481 10.04961439 -23.81179481 10.04961439 -15.09617615 3.80342102 C-13.43413323 2.83389599 -11.70532386 1.98089588 -9.97117615 1.14717102 C-6.82450332 -0.42616539 -3.45519983 -0.00080978 0 0 Z " fill="#002986" transform="translate(134.97117614746094,-0.1471710205078125)"/>
<path d="M0 0 C20.1328909 12.18569713 33.11319197 33.63925633 39 56 C40.96846332 64.38662477 41.35152429 72.53004063 41.3125 81.125 C41.30758545 82.40673096 41.3026709 83.68846191 41.29760742 85.0090332 C41.17861475 94.66208502 40.35870462 103.65262619 38 113 C37.82839355 113.72155273 37.65678711 114.44310547 37.47998047 115.18652344 C34.79938789 126.34487934 31.00908575 136.68547944 26 147 C25.70254883 147.62471191 25.40509766 148.24942383 25.09863281 148.89306641 C7.64461737 185.15024551 -25.35497352 212.20681043 -63.0078125 225.44140625 C-77.69480126 230.36757733 -92.81475173 232.89584149 -108.30078125 233.17578125 C-109.60853516 233.19962891 -110.91628906 233.22347656 -112.26367188 233.24804688 C-114.28388198 233.28294119 -116.30350118 233.31243993 -118.32397461 233.32592773 C-131.85653623 233.43318496 -143.11881425 234.97949344 -152.9765625 244.7734375 C-160.2102581 252.7332956 -162.19966551 261.79682675 -163.85351562 272.16625977 C-164.01494553 273.13983429 -164.17637543 274.11340881 -164.34269714 275.1164856 C-164.68963363 277.2144048 -165.03324306 279.31287645 -165.37382507 281.41183662 C-165.9139188 284.73864363 -166.46337823 288.06378588 -167.01525879 291.38865662 C-168.38341004 299.64256329 -169.73639236 307.89894004 -171.08831787 316.15551758 C-172.23323437 323.14525841 -173.38466635 330.13386229 -174.54508972 337.12104607 C-175.08494905 340.38814501 -175.61519126 343.65671174 -176.1451416 346.9254303 C-176.47843335 348.93807952 -176.81218978 350.95065187 -177.14648438 352.96313477 C-177.28994797 353.86465775 -177.43341156 354.76618073 -177.58122253 355.69502258 C-178.74799717 362.62088824 -180.0774278 369.86507878 -185.375 374.875 C-185.93960938 375.42929687 -186.50421875 375.98359375 -187.0859375 376.5546875 C-191.50275718 379.88983706 -195.61670468 380.25722593 -201.05004883 380.29052734 C-201.7401857 380.29724457 -202.43032257 380.30396179 -203.14137268 380.31088257 C-205.41333299 380.32981399 -207.68499706 380.33378443 -209.95703125 380.3359375 C-211.54497903 380.34236944 -213.13292564 380.3490981 -214.72087097 380.35610962 C-218.0470962 380.36807069 -221.37321768 380.37179172 -224.69946289 380.37060547 C-228.94628741 380.37040249 -233.19244117 380.3976875 -237.43910694 380.43214989 C-240.71895864 380.45447038 -243.99865032 380.45844142 -247.27857018 380.45738602 C-248.8433634 380.45973489 -250.40816152 380.46851797 -251.97287941 380.48405075 C-267.15956757 380.62067877 -267.15956757 380.62067877 -274 376 C-276.05859375 373.96484375 -276.05859375 373.96484375 -277.4375 371.9375 C-277.91058594 371.26589844 -278.38367188 370.59429687 -278.87109375 369.90234375 C-285.31592394 359.04202437 -279.57348958 341.20534486 -277.4375 329.625 C-277.06831907 327.57045731 -276.70042119 325.5156837 -276.33374023 323.46069336 C-275.58742247 319.28667482 -274.83517205 315.11380302 -274.07714844 310.94189453 C-272.54194644 302.48741728 -271.04781968 294.02586096 -269.5625 285.5625 C-269.42375458 284.77499359 -269.28500916 283.98748718 -269.14205933 283.17611694 C-266.67169917 269.14043873 -264.36409182 255.08000111 -262.08117676 241.01275635 C-260.75576057 232.85912223 -259.41584451 224.70786188 -258.07568359 216.55664062 C-257.38260793 212.34012713 -256.69549118 208.12272325 -256.01416016 203.90429688 C-255.27329644 199.32664082 -254.51155506 194.75296456 -253.73242188 190.18167114 C-253.45724435 188.54722465 -253.18923541 186.91155138 -252.92919922 185.27462769 C-251.3694075 175.48649794 -249.73194833 165.7270158 -241.66333008 159.07299805 C-235.54446112 154.74878255 -230.42954151 152.75665304 -222.87744141 152.71289062 C-222.17904144 152.70605759 -221.48064148 152.69922455 -220.76107788 152.69218445 C-219.24919454 152.67863477 -217.73726587 152.66955692 -216.22533035 152.66447449 C-213.81789856 152.65613336 -211.4108368 152.63557349 -209.00350952 152.61193848 C-203.87739544 152.56379588 -198.7512431 152.53089836 -193.625 152.5 C-187.71319631 152.46409723 -181.80156987 152.42165294 -175.88993454 152.36405945 C-173.54448617 152.3443216 -171.19918134 152.33573485 -168.85366821 152.32775879 C-156.27192326 152.23869835 -143.93196892 151.17146305 -131.75 147.8125 C-130.96262451 147.59891846 -130.17524902 147.38533691 -129.36401367 147.1652832 C-102.69252889 139.7031927 -78.68837312 127.45334112 -58 109 C-57.27554688 108.39671875 -56.55109375 107.7934375 -55.8046875 107.171875 C-26.3279617 82.58804701 -9.33248333 45.9832128 -2 9 C-1.60971256 7.20711707 -1.21467853 5.41525303 -0.8125 3.625 C-0.544375 2.42875 -0.27625 1.2325 0 0 Z " fill="#0084CB" transform="translate(429,132)"/>
<path d="M0 0 C1.43215463 -0.00379207 2.86430557 -0.00929937 4.29644775 -0.01637268 C8.1564774 -0.03023669 12.01605669 -0.01921852 15.87606096 -0.00266147 C19.94133292 0.01129672 24.00658155 0.00471618 28.0718689 0.00120544 C34.90247757 -0.00149008 41.73290989 0.01191574 48.56347656 0.03515625 C56.41770744 0.0616978 64.27164248 0.06353099 72.12590277 0.05176789 C79.72648372 0.04091503 87.32695952 0.04723967 94.9275322 0.06132317 C98.1400036 0.0670248 101.35239656 0.06704673 104.56486893 0.06225777 C143.92582163 0.01864653 143.92582163 0.01864653 160.81005859 7.25170898 C162.06157715 7.76797852 162.06157715 7.76797852 163.33837891 8.29467773 C169.83529423 11.05416102 175.73158765 14.31567527 181.43505859 18.50170898 C177.97140738 61.25988608 154.25355675 102.35244392 122.16162109 130.26733398 C90.31633876 156.364041 51.81057281 171.87329648 10.45026207 171.74553871 C8.06439739 171.73982282 5.67899717 171.74929562 3.29316711 171.76274109 C-3.47735141 171.79939079 -10.24769486 171.8183878 -17.01831055 171.80712891 C-21.19207049 171.80124692 -25.36515604 171.81966552 -29.53877831 171.85301781 C-31.11304017 171.86090572 -32.68737684 171.85978575 -34.26162148 171.8489933 C-44.8927964 171.77913982 -53.18503115 172.70657159 -61.43994141 180.06420898 C-62.49181641 181.27077148 -62.49181641 181.27077148 -63.56494141 182.50170898 C-64.89827474 183.83504232 -66.23160807 185.16837565 -67.56494141 186.50170898 C-67.23889966 179.54071774 -66.10915206 172.82003321 -64.75244141 166.00170898 C-62.86304749 156.49404297 -61.38146344 146.95604553 -60.0480957 137.35522461 C-59.25836902 131.77510976 -58.34073856 126.26229254 -57.19384766 120.74389648 C-54.9364047 109.72904633 -53.30094889 98.60824844 -51.56494141 87.50170898 C-47.63039103 62.32944482 -47.63039103 62.32944482 -45.18603516 50.57836914 C-44.32276565 46.30206319 -43.68590316 42.00590233 -43.06494141 37.68920898 C-41.07346484 24.76337439 -38.43218596 14.35661515 -27.67113304 5.91283512 C-19.15834791 0.20935905 -9.93015502 -0.07286015 0 0 Z " fill="#00186A" transform="translate(247.56494140625,113.498291015625)"/>
</svg>
