<?xml version="1.0" encoding="UTF-8"?>
<svg version="1.1" xmlns="http://www.w3.org/2000/svg" width="512" height="512">
<path d="M0 0 C12.89353014 10.20270646 20.36644983 24.32067799 22.83203125 40.54248047 C24.41110103 55.13571703 24.71722482 71.17464424 20.125 85.25 C19.80789063 86.32507813 19.49078125 87.40015625 19.1640625 88.5078125 C15.0349801 100.89505969 6.94293434 112.22044166 -4.875 118.25 C-16.31418362 123.23784247 -28.69452302 124.12608887 -40.62890625 120.296875 C-43.59553758 118.91416683 -46.19100679 117.1137772 -48.875 115.25 C-48.91258423 116.48919189 -48.91258423 116.48919189 -48.95092773 117.75341797 C-49.04698367 120.86597873 -49.14615022 123.97842171 -49.24731445 127.09082031 C-49.31109984 129.0813065 -49.37140927 131.0719031 -49.43164062 133.0625 C-49.6647318 140.16281583 -50.02716712 147.19478208 -50.875 154.25 C-55.51894651 155.25080793 -60.16372677 156.2476154 -64.80932617 157.24072266 C-66.38964019 157.5791412 -67.96972063 157.91865243 -69.54956055 158.25927734 C-71.82019521 158.74864441 -74.09164041 159.234078 -76.36328125 159.71875 C-77.06963211 159.87186646 -77.77598297 160.02498291 -78.5037384 160.18273926 C-81.35916567 160.78864376 -83.94608078 161.25 -86.875 161.25 C-86.875 106.14 -86.875 51.03 -86.875 -5.75 C-76.315 -5.75 -65.755 -5.75 -54.875 -5.75 C-53.885 -3.44 -52.895 -1.13 -51.875 1.25 C-51.34132813 0.85167969 -50.80765625 0.45335937 -50.2578125 0.04296875 C-34.8966671 -10.87992183 -15.60383897 -10.81412032 0 0 Z M-39 24.9375 C-40.11761719 25.12892578 -40.11761719 25.12892578 -41.2578125 25.32421875 C-45.11472655 26.68853014 -48.21220843 28.0479099 -50.875 31.25 C-51.85940023 35.2347288 -51.66971648 39.10965049 -51.515625 43.19140625 C-51.49538269 44.3512352 -51.47514038 45.51106415 -51.45428467 46.70603943 C-51.40340336 49.15494451 -51.33505084 51.60354019 -51.25048828 54.05151367 C-51.12533892 57.80234231 -51.06436603 61.55026236 -51.01171875 65.30273438 C-50.95433358 67.68238667 -50.89326025 70.06195348 -50.828125 72.44140625 C-50.81009827 73.56438614 -50.79207153 74.68736603 -50.77349854 75.84437561 C-50.65758918 81.9421867 -50.65758918 81.9421867 -47.49121094 86.90991211 C-42.06735373 89.6881458 -37.00578484 91.17019285 -30.875 90.25 C-24.23796307 88.09081608 -19.93270509 84.18466582 -16.71875 78.0390625 C-11.59832415 67.03014692 -10.95842781 53.36705956 -14.375 41.6875 C-16.97011769 35.1314132 -20.89038999 29.20471435 -27.359375 26.03125 C-31.72044656 24.5312636 -34.51803907 24.10947671 -39 24.9375 Z " fill="#625AFF" transform="translate(376.875,201.75)"/>
<path d="M0 0 C13.90975295 10.72839042 19.54392873 26.02919738 22.33984375 42.8046875 C22.33984375 52.0446875 22.33984375 61.2846875 22.33984375 70.8046875 C-0.43015625 70.8046875 -23.20015625 70.8046875 -46.66015625 70.8046875 C-43.16023739 81.63710004 -43.16023739 81.63710004 -34.66015625 88.1796875 C-20.63824452 93.16805072 -3.33721899 90.25346364 10.05859375 84.671875 C12.33984375 83.8046875 12.33984375 83.8046875 15.33984375 83.8046875 C15.33984375 93.3746875 15.33984375 102.9446875 15.33984375 112.8046875 C4.04753606 118.45084135 4.04753606 118.45084135 -0.34765625 119.5546875 C-1.19714844 119.77640625 -2.04664063 119.998125 -2.921875 120.2265625 C-21.95280848 124.24450566 -43.25003696 123.44809804 -59.9765625 112.78125 C-73.7449697 102.64032709 -80.17902797 88.97495334 -83.28125 72.5078125 C-85.68309729 49.03408844 -82.62887458 27.77339607 -68.0390625 8.68359375 C-51.67525798 -11.30821362 -21.12751823 -13.76541706 0 0 Z M-43.55859375 28.9921875 C-46.38559675 33.64371016 -47.66015625 38.40033429 -47.66015625 43.8046875 C-35.78015625 43.8046875 -23.90015625 43.8046875 -11.66015625 43.8046875 C-12.58964458 33.30476911 -12.58964458 33.30476911 -18.38671875 25.1953125 C-27.02997079 19.06583496 -36.97186406 20.49318145 -43.55859375 28.9921875 Z " fill="#625AFF" transform="translate(489.66015625,202.1953125)"/>
<path d="M0 0 C0 11.55 0 23.1 0 35 C-3.22228289 33.9259057 -6.44335504 32.84795196 -9.65625 31.74609375 C-10.93748294 31.30984572 -12.21873315 30.87364841 -13.5 30.4375 C-14.13808594 30.21642578 -14.77617188 29.99535156 -15.43359375 29.76757812 C-21.94941894 27.56232441 -27.75987894 26.86124224 -34.625 26.875 C-35.91664062 26.87242187 -37.20828125 26.86984375 -38.5390625 26.8671875 C-41.26226685 26.9716897 -43.42916106 27.17785354 -46 28 C-46.55602275 32.0577244 -46.55602275 32.0577244 -46 36 C-41.12893237 40.66820998 -33.91061515 42.72750061 -27.6875 44.9375 C-14.55308493 49.79469938 -2.46201636 54.27636911 3.875 67.5625 C5.46344957 71.3956111 6.73379425 74.8294433 7 79 C7.05027344 79.72445312 7.10054688 80.44890625 7.15234375 81.1953125 C7.59973141 92.61264558 4.12931624 102.01579772 -3.25 110.625 C-18.8045007 124.05843242 -36.21163198 125.21101918 -56 124 C-65.75041443 122.81322033 -73.96536389 120.01539383 -83 116 C-83 104.45 -83 92.9 -83 81 C-80.009375 82.258125 -77.01875 83.51625 -73.9375 84.8125 C-60.09881487 90.45450377 -46.7232991 94.20665689 -32 90 C-31.17674209 86.78180999 -30.79853919 84.63537641 -31.8125 81.4375 C-36.81539744 75.86284285 -44.46359541 73.80221935 -51.29467773 71.15356445 C-64.74454703 65.91898715 -75.7813337 61.16200728 -82.62890625 47.828125 C-84.42000716 43.50739602 -84.49731143 39.37866305 -84.4375 34.75 C-84.42775146 33.91025635 -84.41800293 33.0705127 -84.40795898 32.20532227 C-84.09883223 21.34816186 -81.10776651 14.09183262 -73.4921875 6.2265625 C-53.43468072 -11.69315359 -23.52018335 -7.84006112 0 0 Z " fill="#625AFF" transform="translate(84,200)"/>
<path d="M0 0 C0.02902996 4.24998566 0.04680887 8.49994581 0.0625 12.75 C0.07087891 13.9565625 0.07925781 15.163125 0.08789062 16.40625 C0.09111328 17.56640625 0.09433594 18.7265625 0.09765625 19.921875 C0.10289307 20.99018555 0.10812988 22.05849609 0.11352539 23.15917969 C0.01503008 25.62389235 -0.28434536 27.65245467 -1 30 C-0.18732666 29.99476318 0.62534668 29.98952637 1.46264648 29.98413086 C5.12092322 29.96343006 8.77918767 29.95036197 12.4375 29.9375 C13.71689453 29.92912109 14.99628906 29.92074219 16.31445312 29.91210938 C18.13686523 29.90727539 18.13686523 29.90727539 19.99609375 29.90234375 C21.12200928 29.89710693 22.2479248 29.89187012 23.40795898 29.88647461 C26 30 26 30 27 31 C27.10012401 33.20650656 27.1308118 35.41622386 27.1328125 37.625 C27.13376923 38.28709473 27.13472595 38.94918945 27.13571167 39.63134766 C27.13639326 41.03352961 27.13454042 42.4357147 27.13037109 43.83789062 C27.12502246 45.99095713 27.1303167 48.14381502 27.13671875 50.296875 C27.13605796 51.65625046 27.13477679 53.0156258 27.1328125 54.375 C27.13168457 55.62023437 27.13055664 56.86546875 27.12939453 58.1484375 C27 61 27 61 26 62 C24.00035018 62.08758003 21.9976389 62.10696576 19.99609375 62.09765625 C18.78115234 62.09443359 17.56621094 62.09121094 16.31445312 62.08789062 C15.03505859 62.07951172 13.75566406 62.07113281 12.4375 62.0625 C11.15423828 62.05798828 9.87097656 62.05347656 8.54882812 62.04882812 C5.36583978 62.03699545 2.18294238 62.02051068 -1 62 C-0.90733108 68.97451941 -0.79997525 75.94870423 -0.68261719 82.92285156 C-0.64443726 85.29324269 -0.6095656 87.66368959 -0.578125 90.03417969 C-0.5322356 93.45007193 -0.47428038 96.86558389 -0.4140625 100.28125 C-0.40251129 101.33364868 -0.39096008 102.38604736 -0.37905884 103.47033691 C-0.29781254 113.56729059 -0.29781254 113.56729059 3.9375 122.4375 C7.31840941 124.99879501 10.1416765 125.13647576 14.25 125.125 C15.16265625 125.12757813 16.0753125 125.13015625 17.015625 125.1328125 C20.3907522 124.9826105 23.65983827 124.49565913 27 124 C27.12366555 128.07487494 27.21436476 132.14902301 27.2746582 136.2253418 C27.29979219 137.61160304 27.33390592 138.99773187 27.37719727 140.38354492 C27.43788396 142.37621037 27.46354879 144.36984533 27.48828125 146.36328125 C27.51446533 147.56251221 27.54064941 148.76174316 27.56762695 149.99731445 C27 153 27 153 24.73168945 154.84204102 C13.65138806 159.53896384 -1.83958035 160.21043518 -13.25 156.375 C-23.13029836 151.95283203 -30.18570989 145.14448893 -34.14349365 135.00846863 C-36.32581812 128.78375778 -36.53959075 123.09839065 -36.45410156 116.55200195 C-36.45468567 115.36046005 -36.45526978 114.16891815 -36.45587158 112.94126892 C-36.45358119 109.71033294 -36.43368181 106.48011255 -36.40557575 103.24931741 C-36.38037433 99.85945581 -36.37820548 96.46957645 -36.37347412 93.07963562 C-36.36109885 86.67666231 -36.32835222 80.27396595 -36.28807616 73.87111396 C-36.24318744 66.57478546 -36.22132868 59.27844294 -36.20129442 51.98201048 C-36.1596138 36.98785335 -36.08936937 21.99395453 -36 7 C-33.49242277 6.36884368 -30.98457339 5.73880393 -28.4765625 5.109375 C-27.77732666 4.93325684 -27.07809082 4.75713867 -26.35766602 4.57568359 C-7.75266204 -0.08900256 -7.75266204 -0.08900256 0 0 Z " fill="#625AFF" transform="translate(133,166)"/>
<path d="M0 0 C0 11.22 0 22.44 0 34 C-4.62 34 -9.24 34 -14 34 C-18.78809898 35.47326122 -22.48824408 37.41517199 -26 41 C-26.50715787 43.94181343 -26.69194733 46.31417142 -26.65942383 49.25683594 C-26.67514938 50.50129234 -26.67514938 50.50129234 -26.69119263 51.77088928 C-26.71996027 54.50909749 -26.71364931 57.24604264 -26.70703125 59.984375 C-26.72014528 61.88439521 -26.7354486 63.78440146 -26.75285339 65.68438721 C-26.79275083 70.68214248 -26.8028969 75.67953345 -26.80688477 80.6774292 C-26.81620726 85.77855514 -26.85361525 90.87946623 -26.88867188 95.98046875 C-26.95329636 105.9870196 -26.98390082 115.99325329 -27 126 C-38.88 126 -50.76 126 -63 126 C-63 84.42 -63 42.84 -63 0 C-52.77 0 -42.54 0 -32 0 C-30.515 3.96 -30.515 3.96 -29 8 C-28.23816406 7.27683594 -28.23816406 7.27683594 -27.4609375 6.5390625 C-19.5879891 -0.68517854 -10.58237205 -3.52745735 0 0 Z " fill="#625AFF" transform="translate(233,196)"/>
<path d="M0 0 C12.21 0 24.42 0 37 0 C37 41.58 37 83.16 37 126 C24.79 126 12.58 126 0 126 C0 84.42 0 42.84 0 0 Z " fill="#625AFF" transform="translate(241,196)"/>
<path d="M0 0 C0 9.9 0 19.8 0 30 C-4.30375226 31.0030148 -8.60805903 32.00190462 -12.91503906 32.99072266 C-14.37814776 33.32789066 -15.84072435 33.66737679 -17.30273438 34.00927734 C-19.41138282 34.50196564 -21.5218412 34.98612429 -23.6328125 35.46875 C-24.90012207 35.76201172 -26.16743164 36.05527344 -27.47314453 36.35742188 C-31 37 -31 37 -37 37 C-37 27.1 -37 17.2 -37 7 C-32.37429753 5.99929615 -27.74819755 5.00111076 -23.12060547 4.00927734 C-21.54704666 3.67122959 -19.97380031 3.33172391 -18.40087891 2.99072266 C-16.13785394 2.50037675 -13.87375118 2.01531257 -11.609375 1.53125 C-10.90818542 1.37813354 -10.20699585 1.22501709 -9.48455811 1.06726074 C-6.2094211 0.37221687 -3.37102126 0 0 0 Z " fill="#635AFF" transform="translate(278,149)"/>
</svg>
