<?xml version="1.0" encoding="UTF-8"?>
<svg version="1.1" xmlns="http://www.w3.org/2000/svg" width="2048" height="628">
<path d="M0 0 C1.37121071 0.00028285 2.74242158 0.00012224 4.1136322 -0.0004425 C7.79670205 -0.00072668 11.47973861 0.00510812 15.16280079 0.01213145 C19.0264805 0.01842872 22.89016117 0.01897379 26.75384521 0.02015686 C34.05268371 0.02325153 41.35150704 0.03143952 48.65033889 0.04150635 C56.96726456 0.05272572 65.28419101 0.05819255 73.60112238 0.06320179 C90.69340022 0.0736239 107.78566335 0.09118686 124.87792969 0.11352539 C125.85277811 4.11079786 126.82178569 8.10946472 127.78979492 12.10839844 C128.20132938 13.79539478 128.20132938 13.79539478 128.62117767 15.51647186 C130.04032544 21.39167517 131.3381537 27.22632245 132.28808594 33.19555664 C133.60424135 41.21426393 135.43765881 49.095319 137.31152344 57.00024414 C137.55120787 58.01237661 137.55120787 58.01237661 137.79573441 59.04495621 C139.13047295 64.67389241 140.47633961 70.30015735 141.82470703 75.92584229 C142.99350232 80.80327167 144.15711774 85.68188752 145.31152344 90.56274414 C145.47236294 91.24251438 145.63320244 91.92228462 145.79891586 92.62265396 C147.96359534 101.80777372 149.85979777 111.00287624 151.45750427 120.30332947 C153.28160712 130.76822422 155.84638161 141.05146822 158.37792969 151.36352539 C163.89640336 174.00764984 163.89640336 174.00764984 166.09667969 183.78540039 C166.24955444 184.4558136 166.4024292 185.12622681 166.55993652 185.81695557 C167.448231 189.81895205 168.17010484 193.82603185 168.82177734 197.87353516 C169.83440424 204.06822516 171.15386853 210.16510173 172.55761719 216.28149414 C172.81165314 217.4005867 173.06568909 218.51967926 173.3274231 219.67268372 C174.13271062 223.21620489 174.94280523 226.75860731 175.75292969 230.30102539 C176.28838742 232.65577456 176.82354592 235.0105918 177.35839844 237.36547852 C180.14647503 249.68545615 180.14647503 249.68545615 183.046875 261.97924805 C184.68533983 268.75222098 186.17147075 275.50901278 187.32324219 282.38305664 C188.83549937 291.38686539 190.93339205 300.22412193 193.09326172 309.09173584 C193.9935668 312.7893341 194.88167699 316.48983004 195.77056885 320.19018555 C196.20829019 322.01193279 196.64655408 323.83354978 197.08538818 325.6550293 C198.71629907 332.4252407 200.32373666 339.20023131 201.87792969 345.98852539 C202.06081543 346.77445068 202.24370117 347.56037598 202.43212891 348.37011719 C203.34057844 352.36563707 204.08429065 356.35301892 204.7121582 360.40234375 C205.8490879 367.27557389 207.37883598 374.04497386 208.96082878 380.82639122 C209.48211117 383.06172646 209.99852147 385.29814204 210.5138092 387.53486633 C211.79447876 393.08990903 213.08233665 398.64327801 214.371521 404.1963501 C215.46377504 408.90169435 216.55240585 413.60784818 217.63626289 418.31513405 C218.13735194 420.4851339 218.64349458 422.65391043 219.14988708 424.82267761 C220.9451349 432.57946723 222.49536994 440.34109695 223.83789921 448.18907928 C224.76408535 453.57645118 225.87620785 458.88144126 227.18261719 464.18774414 C227.38697891 465.03690399 227.59134064 465.88606384 227.80189514 466.76095581 C228.23005643 468.5379569 228.66042138 470.31442846 229.09298706 472.09036255 C229.9945947 475.79364558 230.88371593 479.49989454 231.77372742 483.20597839 C232.42175818 485.90362259 233.0714144 488.60087168 233.72119141 491.2980957 C235.11313091 497.08451251 236.48300865 502.87559591 237.81542969 508.67602539 C237.98993652 509.42005615 238.16444336 510.16408691 238.34423828 510.93066406 C239.13088955 514.3812201 239.83037174 517.82240774 240.40112305 521.31616211 C242.01692195 531.200233 244.15980616 540.92943867 246.45214844 550.67602539 C246.61655111 551.37650938 246.78095379 552.07699337 246.95033836 552.79870415 C248.50074445 559.40084403 250.06117957 566.00058386 251.6340332 572.59741211 C252.50189421 576.23955146 253.35990802 579.88389913 254.21201515 583.52975464 C254.53478922 584.90200822 254.86125449 586.27339964 255.19168663 587.64382935 C255.6531874 589.55861695 256.10111327 591.47666056 256.54858398 593.39477539 C256.80600876 594.47823242 257.06343353 595.56168945 257.32865906 596.67797852 C257.87792969 600.11352539 257.87792969 600.11352539 257.87792969 609.11352539 C206.72792969 609.11352539 155.57792969 609.11352539 102.87792969 609.11352539 C94.45265036 573.30608824 94.45265036 573.30608824 92.01855469 559.00024414 C90.28793708 549.54462463 87.8403387 540.22653231 85.51855469 530.90234375 C85.25803314 529.8531501 85.25803314 529.8531501 84.99224854 528.78276062 C84.51399304 526.86137075 84.03153432 524.94102852 83.54882812 523.02075195 C82.87792969 520.11352539 82.87792969 520.11352539 82.87792969 518.11352539 C-21.07207031 518.60852539 -21.07207031 518.60852539 -127.12207031 519.11352539 C-134.39882522 537.21735947 -134.39882522 537.21735947 -141.34082031 555.41040039 C-145.13509554 565.63643483 -149.12184291 575.78235187 -153.16308594 585.91333008 C-155.77536302 592.50719306 -158.18801181 599.11469829 -160.33837891 605.87426758 C-161.12207031 608.11352539 -161.12207031 608.11352539 -162.12207031 609.11352539 C-164.38764418 609.2106015 -166.65631333 609.2353916 -168.92396545 609.23377991 C-169.64352509 609.23463433 -170.36308473 609.23548876 -171.10444921 609.23636907 C-173.53360611 609.23802599 -175.96269509 609.23249907 -178.3918457 609.22705078 C-180.12596129 609.22676893 -181.86007699 609.2269266 -183.5941925 609.22749329 C-188.31713352 609.22778134 -193.04004937 609.22188338 -197.76298451 609.21491933 C-202.69309822 609.20868705 -207.62321243 609.20808209 -212.55332947 609.20689392 C-221.89603393 609.20378023 -231.23872676 609.19556634 -240.58142608 609.18554443 C-251.21486086 609.17438446 -261.84829618 609.16887314 -272.48173535 609.163849 C-294.36185351 609.15338375 -316.24196118 609.13578359 -338.12207031 609.11352539 C-337.4240092 604.37915458 -336.23027484 600.9271255 -333.99707031 596.67602539 C-333.36262744 595.44509351 -332.72987143 594.21329103 -332.09863281 592.98071289 C-331.77282227 592.34746094 -331.44701172 591.71420898 -331.11132812 591.06176758 C-329.47315898 587.83556082 -327.91445098 584.57389211 -326.37207031 581.30102539 C-325.82035156 580.13958008 -325.26863281 578.97813477 -324.70019531 577.78149414 C-323.54507616 575.09669987 -322.57723389 572.54567456 -321.68847656 569.77758789 C-320.07333016 564.78652073 -317.99102836 560.06707715 -315.80957031 555.30102539 C-315.4122168 554.42373779 -315.01486328 553.5464502 -314.60546875 552.64257812 C-312.45907029 547.93310182 -310.2360425 543.28116602 -307.87207031 538.67602539 C-305.94458698 534.90486234 -304.33229652 531.15108562 -302.87207031 527.17602539 C-300.68685743 521.2878955 -298.0565676 515.69680198 -295.30957031 510.05102539 C-291.94485381 503.12322894 -288.84719885 496.16809688 -286.05957031 488.98852539 C-281.96261364 478.44738643 -277.31550276 468.13336734 -272.07324219 458.10766602 C-270.34012455 454.77626531 -268.88139951 451.55469607 -267.76660156 447.96508789 C-265.72794181 441.54530297 -262.70276154 435.55693045 -259.80957031 429.48852539 C-256.37957455 422.27877763 -253.05167324 415.09482207 -250.14550781 407.66040039 C-246.86784507 399.28230832 -243.0286267 391.20112227 -239.15112305 383.08764648 C-235.53550884 375.50567135 -232.19825738 367.90418287 -229.25073242 360.03051758 C-227.69380791 356.00669449 -225.84693256 352.16507527 -223.93457031 348.30102539 C-220.40952618 341.02353897 -217.19656865 333.65443801 -214.12207031 326.17602539 C-210.91352592 318.37723685 -207.63800881 310.61991533 -204.18457031 302.92602539 C-203.81912109 302.10690674 -203.45367188 301.28778809 -203.07714844 300.44384766 C-201.29420123 296.50095156 -199.3589103 292.82214126 -197.12207031 289.11352539 C-196.53731987 287.60873181 -195.99772137 286.08584959 -195.49707031 284.55102539 C-191.53211501 273.28140244 -186.17026613 262.49157341 -181.12207031 251.67602539 C-178.1563213 245.28700134 -175.40870183 238.80997906 -172.65161133 232.32910156 C-170.02856712 226.18057212 -167.32372145 220.07479549 -164.55957031 213.98852539 C-161.5986013 207.46785495 -158.74800231 200.91302011 -155.99707031 194.30102539 C-152.19055891 185.15917329 -148.20117447 176.0969961 -143.66796875 167.2878418 C-142.19917374 164.27184801 -140.99916569 161.27286905 -139.84472656 158.12524414 C-137.09980453 150.88526822 -133.87502068 143.91937467 -130.55957031 136.92602539 C-127.19826479 129.81542365 -123.88443211 122.73366314 -121.02758789 115.40380859 C-119.54491618 111.65375648 -117.89658932 107.98002947 -116.24707031 104.30102539 C-115.89829834 103.51896729 -115.54952637 102.73690918 -115.19018555 101.93115234 C-113.22529986 97.53664201 -111.22308515 93.16197078 -109.18457031 88.80102539 C-107.0594149 84.23735385 -105.06136462 79.63354369 -103.10791016 74.99487305 C-99.26475206 65.89123394 -95.25627282 56.87243271 -91.05957031 47.92602539 C-90.5895459 46.89960937 -90.11952148 45.87319336 -89.63525391 44.81567383 C-85.79940175 36.74393554 -80.89032666 29.07850567 -74.12207031 23.11352539 C-73.46207031 23.11352539 -72.80207031 23.11352539 -72.12207031 23.11352539 C-72.12207031 22.45352539 -72.12207031 21.79352539 -72.12207031 21.11352539 C-60.93419168 7.49669942 -40.09007789 2.70918481 -23.46406937 0.80988407 C-15.62994926 0.12075232 -7.86144458 -0.02249232 0 0 Z M7.87792969 170.11352539 C5.3284019 174.88630211 3.58006078 179.68999276 1.87792969 184.80102539 C-1.40092509 194.43482083 -5.18483096 203.82755095 -9.12597656 213.20800781 C-11.49570951 218.90094777 -13.65325376 224.59142045 -15.55957031 230.45727539 C-17.9279787 237.71489519 -20.72009365 244.73515063 -23.65548706 251.77935791 C-28.03516674 262.3003087 -32.21354225 272.83257515 -35.86938477 283.63037109 C-38.25343494 290.63403406 -41.1031013 297.35678522 -44.12207031 304.11352539 C-47.20640124 311.07959963 -50.17224728 317.88886412 -52.21972656 325.23071289 C-55.1101685 334.46511182 -58.97571165 343.46025463 -62.74707031 352.36352539 C-64.96131646 357.60438721 -66.84391291 362.93128407 -68.71972656 368.30102539 C-70.57012967 373.45425443 -72.72493828 378.48774742 -74.88720703 383.51660156 C-76.64431559 387.66733505 -76.64431559 387.66733505 -77.12207031 392.11352539 C-32.90207031 392.11352539 11.31792969 392.11352539 56.87792969 392.11352539 C56.17642304 385.19227226 56.17642304 385.19227226 54.92578125 378.49365234 C54.6495417 377.30871437 54.6495417 377.30871437 54.36772156 376.09983826 C54.16999649 375.27548782 53.97227142 374.45113739 53.76855469 373.60180664 C53.45776726 372.27772545 53.45776726 372.27772545 53.14070129 370.92689514 C52.70068765 369.05494829 52.25832287 367.18355271 51.81375122 365.31268311 C51.12111595 362.39734602 50.43501564 359.48054037 49.75073242 356.56323242 C48.85829802 352.76030668 47.96384495 348.95786902 47.06689453 345.15600586 C45.67845875 339.26980882 44.29751418 333.38203807 42.94042969 327.48852539 C42.76608398 326.74900635 42.59173828 326.0094873 42.41210938 325.24755859 C41.33118807 320.5404742 40.5003576 315.82466029 39.71777344 311.05883789 C38.27883692 302.57666654 36.35889249 294.20855463 34.40917969 285.83227539 C34.24850447 285.14173695 34.08782925 284.4511985 33.92228508 283.73973465 C32.74701817 278.6962105 31.56330003 273.65468299 30.37792969 268.61352539 C29.02863527 262.87522947 27.68249984 257.13622487 26.34667969 251.39477539 C26.10528731 250.35740895 26.10528731 250.35740895 25.85901833 249.29908562 C23.86098534 240.68569756 22.06864649 232.08739516 20.63916016 223.36206055 C18.92521427 213.3475577 16.44486664 203.45421255 14.19042969 193.55102539 C13.67378754 191.26790508 13.157509 188.98470246 12.64160156 186.70141602 C11.39122667 181.17116499 10.13639722 175.64194015 8.87792969 170.11352539 C8.54792969 170.11352539 8.21792969 170.11352539 7.87792969 170.11352539 Z " fill="#0D4494" transform="translate(1790.1220703125,11.886474609375)"/>
<path d="M0 0 C34.50623253 -0.04584703 69.01245807 -0.08105447 103.51871452 -0.10213066 C107.59890218 -0.10463186 111.67908977 -0.10722053 115.75927734 -0.10986328 C116.97763864 -0.11065021 116.97763864 -0.11065021 118.2206133 -0.11145304 C131.34656211 -0.12013923 144.47249328 -0.1358993 157.59843165 -0.15430559 C171.08181577 -0.17305446 184.5651907 -0.18412724 198.04858732 -0.18817699 C206.35854393 -0.19091173 214.66845065 -0.19952739 222.97839189 -0.21583293 C228.68837704 -0.22646147 234.39833666 -0.22958744 240.10833097 -0.22700275 C243.39533423 -0.22573053 246.68223333 -0.22870241 249.96922493 -0.23841095 C263.13194362 -0.27536242 275.99489264 -0.20399862 289 2 C290.28725605 2.21730176 290.28725605 2.21730176 291.60051727 2.43899345 C301.15747027 4.21757677 309.60620293 7.00027328 318 12 C319.01126953 12.60134766 319.01126953 12.60134766 320.04296875 13.21484375 C332.53292925 21.4036258 341.30031845 36.85242536 344.56567383 51.12036133 C345.02123985 53.33419308 345.46361291 55.55077016 345.89453125 57.76953125 C346.40229106 60.25619922 346.91094952 62.74268383 347.42041016 65.22900391 C347.67856506 66.50793518 347.93671997 67.78686646 348.20269775 69.10455322 C349.51256075 75.50426127 350.92183587 81.88176964 352.32421875 88.26171875 C352.88391365 90.82737581 353.44315724 93.39313136 354.00195312 95.95898438 C354.84932276 99.84664042 355.69737537 103.7341395 356.54907227 107.62084961 C362.01202421 132.55951318 362.01202421 132.55951318 363.51953125 141.6015625 C365.56225904 153.71952893 368.35121201 165.69065789 371 177.6875 C371.53938976 180.14120412 372.07845425 182.59497978 372.6171875 185.04882812 C372.87878662 186.23993195 373.14038574 187.43103577 373.40991211 188.65823364 C373.92381516 190.99844892 374.43765101 193.33867897 374.95141602 195.67892456 C375.19303467 196.77923004 375.43465332 197.87953552 375.68359375 199.01318359 C375.91159668 200.0515033 376.13959961 201.089823 376.37451172 202.15960693 C376.90364948 204.56246445 377.4370031 206.96431216 377.97265625 209.36572266 C379.12796711 214.6103405 380.15484754 219.82139945 380.92578125 225.13671875 C382.24572207 234.11584341 384.2579949 242.94897951 386.1875 251.8125 C386.58968964 253.6749767 386.99154087 255.5375265 387.39306641 257.40014648 C389.25543137 266.02659525 391.13834455 274.64841145 393.04296875 283.265625 C393.50594731 285.36201063 393.96886278 287.45841014 394.43164062 289.55484009 C394.72638546 290.88953024 395.0214682 292.22414583 395.31689453 293.5586853 C397.18716148 302.02087891 398.91447801 310.46758613 400.19921875 319.0390625 C400.7950718 322.39746616 401.75144958 325.59730327 402.73046875 328.86328125 C405.63514361 338.83161226 407.72427489 348.98224829 409.89160156 359.1315918 C410.62443324 362.55984865 411.36637852 365.98604282 412.109375 369.41210938 C414.19099568 379.06963259 416.25097293 388.67962258 417.61083984 398.46850586 C418.16254039 402.05732828 419.0393677 405.50055376 420 409 C421.96862929 404.33046709 423.93537343 399.66015682 425.8984375 394.98828125 C427.10155409 392.12671306 428.31360966 389.27010138 429.5390625 386.41796875 C429.95929688 385.43441406 430.37953125 384.45085937 430.8125 383.4375 C431.34810547 382.19806641 431.34810547 382.19806641 431.89453125 380.93359375 C432.79733821 378.53780567 433.49681956 376.22712307 434.17578125 373.765625 C436.7879216 364.88995646 440.74899154 356.45794733 444.37890625 347.96313477 C448.26690735 338.84443807 451.90990063 329.76659616 454.89355469 320.30883789 C456.65877627 315.02992173 458.93157641 309.98379096 461.17333984 304.89355469 C462.71541034 301.36127506 464.20508293 297.80764352 465.6875 294.25 C465.97286621 293.57727051 466.25823242 292.90454102 466.55224609 292.21142578 C468.00801285 288.70787478 469.23757194 285.24787861 470.24609375 281.58984375 C472.81350709 272.77063963 476.77546451 264.39599466 480.37890625 255.96313477 C484.26690735 246.84443807 487.90990063 237.76659616 490.89355469 228.30883789 C492.45685876 223.63375844 494.41939096 219.16355496 496.3984375 214.65234375 C500.49658219 205.30657477 504.40467004 195.91471824 507.6875 186.25 C510.67145468 177.47782858 514.29193056 168.9744478 517.87652588 160.43600464 C520.66115047 153.79308285 523.41381925 147.19301812 525.5625 140.3125 C527.67587631 133.54812453 530.44318324 127.12908501 533.25 120.625 C537.47016508 110.84169687 541.2572056 100.98735221 544.78491211 90.93554688 C547.3563163 83.65463882 550.17261479 76.52567259 553.26245117 69.44946289 C555.33126868 64.69743166 557.15115811 59.89531027 558.8996582 55.01660156 C560.97556213 49.32548354 563.21677588 43.69831293 565.4375 38.0625 C566.13456055 36.28456055 566.13456055 36.28456055 566.84570312 34.47070312 C569.4679689 27.80349181 572.16813725 21.17598229 574.93969727 14.56958008 C576.13227858 11.6794308 577.22088665 8.76465991 578.25 5.8125 C579.89230769 1.10769231 579.89230769 1.10769231 581 0 C583.29090094 -0.09710514 585.58486541 -0.12186587 587.87782288 -0.12025452 C588.96941299 -0.12153615 588.96941299 -0.12153615 590.08305544 -0.12284368 C592.53985113 -0.12450064 594.99657966 -0.11897362 597.45336914 -0.11352539 C599.20718891 -0.11324354 600.96100879 -0.11340121 602.71482849 -0.1139679 C607.49148669 -0.11425595 612.26812 -0.10835795 617.04477239 -0.10139394 C622.03094054 -0.09516171 627.0171092 -0.09455671 632.00328064 -0.09336853 C641.45223294 -0.09025482 650.90117374 -0.08204091 660.35012096 -0.07201904 C671.10447244 -0.06085912 681.85882446 -0.05534776 692.61318028 -0.05032361 C714.74212662 -0.03985833 736.87106259 -0.02225813 759 0 C758.21836693 2.05529698 757.43447667 4.10973562 756.6496582 6.16381836 C756.21337601 7.30797714 755.77709381 8.45213593 755.32759094 9.63096619 C753.46271349 14.36347451 751.34383347 18.95750715 749.1875 23.5625 C745.55249387 31.43204522 742.20104537 39.35868902 739.05078125 47.43286133 C736.10375863 54.90959437 732.80075739 62.20633479 729.41210938 69.4921875 C727.04430703 74.60145504 724.93740974 79.7130743 723 85 C722.31370364 86.59300906 721.60703346 88.17748368 720.875 89.75 C720.44960938 90.67683594 720.02421875 91.60367188 719.5859375 92.55859375 C718.71567881 94.44701224 717.84518942 96.33532471 716.97363281 98.22314453 C712.65597118 107.60062459 708.57138179 116.88827067 705.23046875 126.66015625 C703.41567966 131.58601235 701.15401423 136.27641132 698.89453125 141.0078125 C694.42498913 150.36877277 690.11784556 159.8380225 686.5 169.5625 C683.49217019 177.60031548 679.7059002 185.26740208 676 193 C673.26142359 198.73550909 670.81634145 204.42515726 668.765625 210.4453125 C666.11690182 217.92518164 662.86738222 225.0317158 659.4375 232.1875 C655.93922694 239.50788624 652.61796402 246.74907521 649.94116211 254.41137695 C648.37803042 258.71069868 646.47106422 262.84522453 644.5625 267 C644.16635498 267.87301758 643.77020996 268.74603516 643.36206055 269.64550781 C641.76431708 273.16283763 640.15309984 276.67284983 638.515625 280.171875 C636.14934261 285.24248013 634.10062351 290.36800899 632.1875 295.625 C629.78484705 302.22402417 626.94722498 308.52031779 623.89794922 314.84301758 C621.36651279 320.1244536 619.18420206 325.47541174 617.13671875 330.96484375 C614.03374254 339.25011012 610.433666 347.2881592 606.66113281 355.28588867 C602.68392005 363.74664231 599.0895099 372.36917205 595.5 381 C591.67023878 390.2085023 587.79710251 399.37429638 583.5 408.375 C581.07966197 413.45896255 578.97383657 418.57951924 577.0625 423.875 C574.16236289 431.90213 570.56777377 439.53068791 566.86035156 447.21142578 C564.38686902 452.35351805 562.15884932 457.48883506 560.296875 462.8828125 C557.57405294 470.41879241 554.08114127 477.58675291 550.63623047 484.81152344 C547.39475054 491.62618676 544.3898692 498.39436761 541.89941406 505.51904297 C540.52695177 509.30486323 538.83018609 512.91755409 537.125 516.5625 C532.12625837 527.43837362 527.62630015 538.51251294 523.13720703 549.60571289 C519.81572715 557.78210941 516.29988346 565.81891665 512.50317383 573.78662109 C510.47554342 578.12114626 508.71403941 582.53447627 507 587 C504.22338628 594.12360732 501.1708506 601.02412868 498 608 C439.26 608 380.52 608 320 608 C316.04 594.14 316.04 594.14 312 580 C311.0925 576.968125 310.185 573.93625 309.25 570.8125 C307.70049658 565.59634987 306.36794927 560.37198584 305.1875 555.0625 C303.02320773 545.39174738 299.98404838 535.99983033 297.03125 526.546875 C295.16064852 520.55036194 293.36180107 514.53656315 291.625 508.5 C291.38668457 507.68305664 291.14836914 506.86611328 290.90283203 506.02441406 C289.80997068 502.19742665 288.86162395 498.40257504 288.14550781 494.48681641 C286.94352177 488.39857338 285.21119733 482.49974068 283.4453125 476.5546875 C283.10249237 475.38600128 282.75967224 474.21731506 282.40646362 473.01321411 C281.3166878 469.29927222 280.22139562 465.58699258 279.125 461.875 C270.8427574 433.80309986 270.8427574 433.80309986 267.91308594 421.671875 C266.15054108 414.58399409 264.08726316 407.57904437 262.0625 400.5625 C261.64104056 399.09316648 261.21981631 397.62376549 260.79882812 396.15429688 C259.09828601 390.22843887 257.39169611 384.30481788 255.63354492 378.39575195 C255.2976963 377.26465248 255.2976963 377.26465248 254.95506287 376.11070251 C254.5321817 374.6893375 254.10719798 373.26859541 253.67958069 371.84864807 C252.3220193 367.28605994 251.21076243 362.71195434 250.1875 358.0625 C248.01327204 348.39347215 244.98436501 339.000844 242.03125 329.546875 C240.16064852 323.55036194 238.36180107 317.53656315 236.625 311.5 C236.38668457 310.68305664 236.14836914 309.86611328 235.90283203 309.02441406 C234.80997068 305.19742665 233.86162395 301.40257504 233.14550781 297.48681641 C231.94352177 291.39857338 230.21119733 285.49974068 228.4453125 279.5546875 C228.10249237 278.38600128 227.75967224 277.21731506 227.40646362 276.01321411 C226.3166878 272.29927222 225.22139562 268.58699258 224.125 264.875 C215.84327918 236.80486838 215.84327918 236.80486838 212.91748047 224.68945312 C211.32020258 218.26633886 209.47776398 211.9128415 207.64550781 205.5534668 C206.99757807 203.30409196 206.35394926 201.05351947 205.7109375 198.80273438 C203.85830548 192.3368328 201.97750303 185.89034155 199.9375 179.48046875 C198.46667676 174.75938881 197.27390711 170.01262133 196.1875 165.19140625 C193.64153035 153.96245856 190.27880102 142.96969102 187 131.9375 C179.70122441 107.33742972 179.70122441 107.33742972 176.82421875 95.34204102 C176.24267698 92.98400627 175.59259308 90.64236682 174.89453125 88.31616211 C174 85 174 85 174 81 C172.78183594 80.649375 171.56367188 80.29875 170.30859375 79.9375 C164.44097514 77.97895778 159.22298525 75.00316888 153.84020996 71.99121094 C140.84379423 64.74470296 127.55810146 58.71483416 113.75732422 53.13427734 C110.69956743 51.87641139 107.68956724 50.53443521 104.68164062 49.1628418 C96.08931277 45.25387132 87.24644492 42.20227144 78.3125 39.171875 C73.93363079 37.68195787 69.58676296 36.12394452 65.25 34.515625 C50.35261442 29.01093332 35.47393421 24.53822061 20.05126953 20.76269531 C15.44829962 19.61213698 10.8794094 18.34772314 6.3125 17.0625 C5.55759277 16.85069092 4.80268555 16.63888184 4.02490234 16.4206543 C2.34933294 15.9492372 0.67455588 15.47500474 -1 15 C-1.02703381 13.06257659 -1.04641125 11.12504521 -1.0625 9.1875 C-1.07410156 8.10855469 -1.08570312 7.02960937 -1.09765625 5.91796875 C-1 3 -1 3 0 0 Z " fill="#0D4494" transform="translate(1,12)"/>
<path d="M0 0 C0.72757444 -0.00282738 1.45514889 -0.00565475 2.20477104 -0.00856781 C6.06791401 -0.02346128 9.93102069 -0.03274841 13.79418945 -0.03710938 C16.92289103 -0.04146005 20.05131155 -0.05523246 23.17993164 -0.078125 C42.8237294 -0.21884626 61.97330931 0.40494759 81.46484375 3.203125 C82.23432343 3.31025818 83.0038031 3.41739136 83.79660034 3.527771 C87.93089465 4.1099332 92.04268462 4.78061211 96.15234375 5.515625 C97.94393921 5.83092163 97.94393921 5.83092163 99.77172852 6.15258789 C110.50114158 8.10073532 121.04984892 10.60053846 131.57861328 13.42822266 C134.54633389 14.22500367 137.51882365 15.00191353 140.4921875 15.77734375 C142.44174446 16.29299381 144.39097646 16.80987447 146.33984375 17.328125 C147.21310303 17.55749756 148.0863623 17.78687012 148.98608398 18.02319336 C155.68833605 19.84262519 162.24179425 22.09160025 168.46484375 25.203125 C167.97810626 36.86783132 166.08987446 48.10984655 164.02734375 59.578125 C163.67628267 61.56255002 163.32587619 63.54709093 162.97607422 65.53173828 C161.16172934 75.79936367 159.31161764 86.06058078 157.46318054 96.32211304 C156.78302767 100.09950229 156.10420344 103.87712857 155.42553711 107.65478516 C154.55329406 112.50970717 153.67446294 117.3633696 152.79125977 122.21630859 C150.8532336 132.93097864 149.00580103 143.59759031 147.83740234 154.42626953 C147.46484375 157.203125 147.46484375 157.203125 146.46484375 159.203125 C141.91330605 157.79249576 137.68214715 155.96155188 133.40234375 153.890625 C122.41873485 148.69476179 111.45720195 144.76612405 99.66845703 141.78173828 C97.24404524 141.14514888 94.83771083 140.45769235 92.4296875 139.76171875 C82.96931355 137.04637609 73.53759957 134.66098917 63.83984375 132.953125 C62.57430664 132.72689453 62.57430664 132.72689453 61.28320312 132.49609375 C45.64156414 129.89501221 29.95213853 128.84794912 14.11035156 128.88745117 C11.46507951 128.89062472 8.82091785 128.86695841 6.17578125 128.84179688 C-9.31640496 128.78371773 -24.94669791 130.169748 -39.78515625 134.890625 C-40.59887695 135.14336182 -41.41259766 135.39609863 -42.25097656 135.65649414 C-53.7239788 139.37973628 -65.14401017 144.30342462 -73.53515625 153.203125 C-74.31632812 153.99976563 -75.0975 154.79640625 -75.90234375 155.6171875 C-83.05055139 163.17647418 -86.06349222 169.24403492 -85.97265625 179.640625 C-85.99263672 180.44822266 -86.01261719 181.25582031 -86.03320312 182.08789062 C-86.02347602 194.15923289 -77.97569375 202.58795698 -70.09765625 211.015625 C-67.04122832 213.97589565 -63.83177737 215.84599012 -60.06640625 217.78515625 C-57.16812078 219.40873283 -54.58969122 221.30180792 -51.91015625 223.265625 C-43.31406732 229.42380245 -33.79932075 233.95963779 -24.39501953 238.73632812 C-21.75810049 240.08877901 -19.1411062 241.47118589 -16.53125 242.875 C-7.79182573 247.57487618 1.01933403 251.87694893 10.10375977 255.87084961 C17.84544711 259.30188516 25.26760524 263.23149875 32.70654297 267.26757812 C34.98953378 268.48229914 37.31650431 269.59407603 39.65234375 270.703125 C45.56163261 273.62792454 50.99446337 277.29851809 56.49072266 280.91894531 C58.57551899 282.27512002 60.67937655 283.59697352 62.7890625 284.9140625 C70.0700395 289.48555854 76.91290233 293.99451684 83.09375 300.03515625 C85.05884362 301.83190577 86.98818451 303.33229389 89.140625 304.8828125 C94.23122893 308.64904131 98.62852989 313.03660751 103.08984375 317.515625 C103.9096875 318.31935547 104.72953125 319.12308594 105.57421875 319.95117188 C110.63771304 325.01059584 114.66844171 330.15393711 118.46484375 336.203125 C119.82636488 338.08793539 121.19927108 339.96464502 122.58984375 341.828125 C127.77975204 348.94204872 131.40620774 355.95076614 134.46484375 364.203125 C134.73232422 364.91194824 134.99980469 365.62077148 135.27539062 366.35107422 C150.02474295 405.6692328 147.23755108 445.92223379 133.46484375 485.203125 C133.09230469 486.32332031 132.71976563 487.44351562 132.3359375 488.59765625 C128.41053821 500.07821734 122.53699809 511.32759416 115.46484375 521.203125 C114.80484375 521.203125 114.14484375 521.203125 113.46484375 521.203125 C113.20960938 522.09257813 112.954375 522.98203125 112.69140625 523.8984375 C109.78525296 531.7283919 103.10744363 537.68901871 97.203125 543.3984375 C95.26196508 545.30403637 95.26196508 545.30403637 93.40234375 548.328125 C90.91798938 552.01458632 87.90141379 554.43457073 84.46484375 557.203125 C83.36065359 558.16143127 82.2564852 559.11976262 81.15234375 560.078125 C78.46484375 562.203125 78.46484375 562.203125 76.46484375 562.203125 C76.2534375 562.77675781 76.04203125 563.35039063 75.82421875 563.94140625 C73.97094577 567.02486904 71.69940294 568.39242623 68.71484375 570.390625 C68.13919678 570.77790771 67.5635498 571.16519043 66.97045898 571.56420898 C65.14222038 572.78805894 63.30463218 573.99672232 61.46484375 575.203125 C60.88557129 575.58694336 60.30629883 575.97076172 59.70947266 576.36621094 C48.42998637 583.83052991 37.05389708 591.01830132 24.43359375 596 C21.35892454 597.24605015 18.39311738 598.64315785 15.40234375 600.078125 C0.06003778 607.17771598 -15.82836355 611.90555023 -32.22265625 615.890625 C-33.18793243 616.12813477 -34.15320862 616.36564453 -35.1477356 616.61035156 C-69.88814009 625.14337212 -104.33751655 628.80321828 -140.04915619 628.65015793 C-142.38883062 628.64045423 -144.72848702 628.63517511 -147.06817627 628.63040161 C-171.07417261 628.56598623 -194.76786229 627.81964583 -218.53515625 624.203125 C-219.79440918 624.0143277 -219.79440918 624.0143277 -221.07910156 623.82171631 C-241.89518003 620.68479019 -262.5541734 616.94697767 -282.98291016 611.83349609 C-285.27998449 611.26614906 -287.58081882 610.73516644 -289.890625 610.22265625 C-303.39313711 607.12127684 -317.27722836 602.73932907 -329.53515625 596.203125 C-328.91173941 587.93837047 -327.69184176 579.9163326 -326.171875 571.77539062 C-325.3370901 567.17113129 -324.56705378 562.57156012 -323.98388672 557.9284668 C-321.67287538 539.59011666 -318.2460715 521.46055641 -314.89758301 503.28967285 C-314.0788964 498.84030694 -313.26640788 494.38980929 -312.453125 489.93945312 C-311.26711724 483.45575498 -310.07949693 476.97235677 -308.88623047 470.48999023 C-308.6487912 469.19955307 -308.41135193 467.90911591 -308.16671753 466.57957458 C-307.64356341 463.78269079 -307.10188101 460.99144659 -306.53515625 458.203125 C-301.25665318 459.84039897 -296.27766117 461.99233543 -291.22265625 464.203125 C-282.9995207 467.76286358 -274.7299037 471.18797547 -266.41015625 474.515625 C-265.39268311 474.92361328 -264.37520996 475.33160156 -263.3269043 475.75195312 C-260.40172523 476.91676493 -257.4707059 478.06472232 -254.53515625 479.203125 C-253.672854 479.54069824 -252.81055176 479.87827148 -251.92211914 480.22607422 C-243.84744001 483.28552323 -235.56521917 485.51662834 -227.22265625 487.703125 C-226.46994446 487.90077454 -225.71723267 488.09842407 -224.94171143 488.30206299 C-172.29147808 502.06059204 -107.60015606 509.15214664 -57.53515625 483.203125 C-54.21570317 481.14466536 -51.39267909 478.85875764 -48.53515625 476.203125 C-47.59671875 475.36652344 -46.65828125 474.52992188 -45.69140625 473.66796875 C-39.68554033 468.14123133 -35.64572443 463.15336343 -33.53515625 455.203125 C-33.31472656 454.45289063 -33.09429688 453.70265625 -32.8671875 452.9296875 C-29.82874205 441.30610422 -31.36916796 429.40138463 -37.22265625 418.890625 C-39.79926966 414.91491683 -42.65819196 411.95149337 -46.3359375 408.98828125 C-48.83085165 406.96310227 -51.13282007 404.78011037 -53.47265625 402.578125 C-57.14695138 399.26679215 -60.67745723 396.75246992 -65.06640625 394.50390625 C-68.08471038 392.91356562 -70.9515968 391.13126678 -73.84765625 389.328125 C-80.26724744 385.36123633 -80.26724744 385.36123633 -86.72265625 381.453125 C-87.60308594 380.92203125 -88.48351563 380.3909375 -89.390625 379.84375 C-92.80112407 378.06435918 -96.2640253 376.68993938 -99.84350586 375.29199219 C-104.39235752 373.45182181 -108.80033076 371.32584123 -113.22265625 369.203125 C-114.12048828 368.77773438 -115.01832031 368.35234375 -115.94335938 367.9140625 C-119.82892528 366.05809989 -123.65964365 364.18051558 -127.37890625 362.0078125 C-130.03482895 360.48920323 -132.4813428 359.3535523 -135.34765625 358.328125 C-140.81311107 356.21139817 -145.58800387 353.31742344 -150.53515625 350.203125 C-155.90624895 346.89985918 -161.30817339 343.78843258 -166.91015625 340.890625 C-172.60352844 337.85995802 -177.62151453 334.33673519 -182.70703125 330.3828125 C-185.24226988 328.42885786 -187.81978538 326.61667342 -190.47265625 324.828125 C-196.85878563 320.39359676 -202.6997326 315.32567879 -208.53515625 310.203125 C-209.31342773 309.5217749 -209.31342773 309.5217749 -210.10742188 308.82666016 C-219.62595623 300.44200458 -229.22293592 291.55852657 -235.94921875 280.7109375 C-237.20302785 278.72831326 -238.49789763 276.84339405 -239.87109375 274.9453125 C-259.91233672 246.87233185 -265.07948797 210.13160813 -259.9375 176.54980469 C-253.66951438 139.99162642 -238.1743276 109.15908142 -213.03515625 81.953125 C-212.10981079 80.94233887 -212.10981079 80.94233887 -211.16577148 79.91113281 C-207.46862057 75.96555288 -203.66486039 72.60604671 -199.25341797 69.47509766 C-197.33717501 68.12200472 -197.33717501 68.12200472 -195.16015625 65.828125 C-186.05244807 56.72041682 -175.11129501 50.392465 -164.1484375 43.7800293 C-162.37094519 42.70745616 -160.59764194 41.62791668 -158.828125 40.54223633 C-157.52294922 39.74595825 -157.52294922 39.74595825 -156.19140625 38.93359375 C-155.41603516 38.45817139 -154.64066406 37.98274902 -153.84179688 37.49291992 C-150.67497454 35.72214067 -147.38505161 34.46097017 -143.99609375 33.18359375 C-141.61984955 32.23686789 -139.42072581 31.14686436 -137.16015625 29.953125 C-96.13071948 9.40718178 -45.5825996 0.12208147 0 0 Z " fill="#0D4494" transform="translate(1319.53515625,-0.203125)"/>
<path d="M0 0 C55.44 0 110.88 0 168 0 C167.38048842 5.57560423 166.73531125 10.88088868 165.72485352 16.36132812 C165.60112366 17.03759247 165.4773938 17.71385681 165.34991455 18.41061401 C165.08390497 19.86267872 164.81651747 21.31449158 164.54785347 22.7660675 C164.11966699 25.08120523 163.69586234 27.39710859 163.2731781 29.71325684 C162.07160064 36.29335933 160.86274521 42.8721155 159.65014648 49.45019531 C158.90525256 53.49277854 158.16572797 57.53631701 157.42918205 61.58042908 C157.15099002 63.10185317 156.87082294 64.62291778 156.58844185 66.14356995 C155.1547473 73.86539055 153.87667975 81.55327123 153.02294922 89.36230469 C152.0879164 97.88429389 150.6463422 106.28144064 149.10229683 114.71199799 C148.61341438 117.381466 148.1310847 120.0520541 147.65013123 122.72296143 C146.79904817 127.44356847 145.94254039 132.16317101 145.08410645 136.88244629 C143.71374651 144.41605854 142.34791258 151.95047106 140.98948479 159.4862442 C140.52148082 162.07467385 140.04874049 164.66220427 139.57557678 167.24969482 C138.05639515 175.62326088 136.67995831 183.99670633 135.51147461 192.42675781 C134.17321106 202.07770695 132.54833334 211.65960447 130.81137085 221.24609375 C130.29421759 224.10092399 129.78196578 226.95660052 129.27075195 229.8125 C128.00174066 236.89644555 126.72484451 243.97896474 125.44812012 251.06152344 C124.36292552 257.08337914 123.28088328 263.10578607 122.20272827 269.12890625 C121.70562657 271.89899026 121.20414803 274.66825584 120.70239258 277.4375 C118.98039888 287.0111537 117.4562108 296.58824818 116.12046051 306.22331333 C114.95210474 314.55593063 113.50861002 322.82808341 111.99656677 331.10435295 C111.51276228 333.75357919 111.03420491 336.40371254 110.5567627 339.05409241 C109.37151998 345.62846949 108.1788432 352.20149109 106.98455811 358.77423096 C105.80738617 365.25349593 104.63414397 371.73344916 103.46875 378.21484375 C103.22804307 379.55351281 103.22804307 379.55351281 102.98247337 380.91922569 C101.09502292 391.45041715 99.32568125 401.96807247 97.98396301 412.58511353 C96.60946056 423.39145839 94.61303016 434.09338249 92.6875 444.8125 C92.28649312 447.06568901 91.88586297 449.31894511 91.4855957 451.57226562 C89.75691059 461.28620419 88.00905408 470.99644132 86.21875 480.69921875 C86.08523636 481.42486526 85.95172272 482.15051178 85.81416321 482.89814758 C85.22564075 486.09468636 84.63259155 489.29007355 84.02807617 492.48364258 C81.65090686 505.2852468 79.91308116 518.08670217 78 531 C73.38 556.74 68.76 582.48 64 609 C8.89 609 -46.22 609 -103 609 C-100.70279606 584.87935868 -100.70279606 584.87935868 -99.26000977 577.22851562 C-99.09872589 576.33259201 -98.93744202 575.4366684 -98.77127075 574.51359558 C-98.25261921 571.64296447 -97.72205545 568.7746848 -97.19140625 565.90625 C-96.81943488 563.85680693 -96.44835613 561.80720169 -96.07810974 559.75744629 C-95.11178806 554.41816945 -94.13585136 549.08070245 -93.15698242 543.74371338 C-91.59267527 535.2082818 -90.04135685 526.67049483 -88.4938488 518.13200378 C-87.95991811 515.19555918 -87.42059548 512.26014666 -86.88050842 509.3248291 C-85.08199522 499.48333642 -83.47915142 489.64322258 -82.10990334 479.73286057 C-80.94125072 471.36275834 -79.48607997 463.05535317 -77.96600151 454.74282074 C-77.47820042 452.07397752 -76.995728 449.40421327 -76.51441956 446.73419189 C-75.14817232 439.16072091 -73.77202348 431.58905514 -72.39477539 424.01757812 C-71.54404963 419.33866389 -70.698465 414.65884144 -69.85566902 409.97849274 C-69.38667222 407.38308558 -68.91177068 404.78880723 -68.43663025 402.19451904 C-66.9163025 393.80278554 -65.62497496 385.44180638 -64.69068432 376.96424484 C-63.99131167 370.67325594 -62.96969869 364.47370276 -61.828125 358.25 C-61.62508255 357.1197641 -61.4220401 355.9895282 -61.21284485 354.82504272 C-60.56328345 351.21582481 -59.90664061 347.60793591 -59.25 344 C-58.79760294 341.49048592 -58.3457023 338.9808823 -57.89428711 336.47119141 C-55.99026944 325.90103186 -54.06743063 315.33444389 -52.11328125 304.7734375 C-51.84275706 303.3059926 -51.57224852 301.83854482 -51.30175781 300.37109375 C-50.83757656 297.85411995 -50.36616987 295.33892404 -49.88964844 292.82421875 C-48.79335117 286.91667528 -47.85354451 281.01450682 -47.08847046 275.05648804 C-44.93575813 258.34972457 -41.8724408 241.80523584 -38.88427734 225.23223877 C-38.28459892 221.90050084 -37.68911881 218.56801866 -37.09379482 215.23550034 C-36.37524799 211.21401928 -35.65460984 207.19291397 -34.93359375 203.171875 C-34.79952055 202.42353142 -34.66544735 201.67518784 -34.52731133 200.90416718 C-34.14359831 198.76500896 -33.75855803 196.62609549 -33.37280273 194.48730469 C-33.2522222 193.81660824 -33.13164167 193.14591179 -33.00740719 192.4548912 C-32.37642057 188.9728031 -31.68973707 185.51031203 -30.94165039 182.05175781 C-30.06514335 177.77692873 -29.5732089 173.48121202 -29.09936523 169.1472168 C-28.10392767 160.15167188 -26.55881409 151.29001429 -24.91710091 142.39258766 C-24.39439039 139.55906732 -23.87851087 136.72436991 -23.36412048 133.889328 C-22.26942354 127.86264528 -21.1664814 121.83748784 -20.0625 115.8125 C-18.78388924 108.83241636 -17.50893038 101.85169643 -16.24166679 94.86954308 C-15.60134544 91.35338438 -14.95270452 87.83877964 -14.30175114 84.32457447 C-12.1912602 72.53982734 -10.62419412 60.91075687 -9 49 C-6.03 32.83 -3.06 16.66 0 0 Z " fill="#0D4494" transform="translate(826,12)"/>
</svg>
