<svg width="15" height="11" viewBox="0 0 15 11" fill="none" xmlns="http://www.w3.org/2000/svg">
<path d="M14.6438 2.14795C14.972 3.29639 14.972 5.75732 14.972 5.75732C14.972 5.75732 14.972 8.19092 14.6438 9.3667C14.4798 10.0229 13.9603 10.5151 13.3313 10.6792C12.1556 10.98 7.50713 10.98 7.50713 10.98C7.50713 10.98 2.83135 10.98 1.65557 10.6792C1.02666 10.5151 0.507129 10.0229 0.343066 9.3667C0.0149412 8.19092 0.0149412 5.75732 0.0149412 5.75732C0.0149412 5.75732 0.0149412 3.29639 0.343066 2.14795C0.507129 1.4917 1.02666 0.972168 1.65557 0.808105C2.83135 0.47998 7.50713 0.47998 7.50713 0.47998C7.50713 0.47998 12.1556 0.47998 13.3313 0.808105C13.9603 0.972168 14.4798 1.4917 14.6438 2.14795ZM5.97588 7.97217L9.85869 5.75732L5.97588 3.54248V7.97217Z" fill="black"/>
</svg>
